<?xml version="1.0" ?><svg viewBox="0 0 37.32 25" xmlns="http://www.w3.org/2000/svg"><defs><style>.a{fill:#4d5051;}</style></defs><title/><path class="a" d="M181.09,147.17a7.64,7.64,0,0,0-3.41.74c1.08-3,3.36-5.09,6.91-6.26a3,3,0,0,0,1.81-1.42,1.71,1.71,0,0,0,.09-1.35,2.35,2.35,0,0,0-2.32-1.38,3.08,3.08,0,0,0-.92.13c-7.46,2.1-11.91,7.82-11.91,15.29,0,5.82,3.31,9.59,8.44,9.59s8.36-3.12,8.36-7.95C188.14,150.13,185.31,147.17,181.09,147.17Zm20.52,0a7.65,7.65,0,0,0-3.41.74c1.08-3,3.36-5.09,6.92-6.26a3,3,0,0,0,1.81-1.42,1.71,1.71,0,0,0,.09-1.35,2.34,2.34,0,0,0-2.32-1.38,3.11,3.11,0,0,0-.92.13c-7.46,2.1-11.91,7.82-11.91,15.29,0,5.82,3.32,9.59,8.45,9.59s8.36-3.12,8.36-7.95C208.66,150.13,205.83,147.17,201.61,147.17Z" transform="translate(-171.34 -137.5)"/></svg>