<?xml version="1.0" encoding="UTF-8" standalone="no"?>
<!-- Generator: Adobe Illustrator 21.1.0, SVG Export Plug-In . SVG Version: 6.00 Build 0)  -->

<svg
   xmlns:dc="http://purl.org/dc/elements/1.1/"
   xmlns:cc="http://creativecommons.org/ns#"
   xmlns:rdf="http://www.w3.org/1999/02/22-rdf-syntax-ns#"
   xmlns:svg="http://www.w3.org/2000/svg"
   xmlns="http://www.w3.org/2000/svg"
   xmlns:sodipodi="http://sodipodi.sourceforge.net/DTD/sodipodi-0.dtd"
   xmlns:inkscape="http://www.inkscape.org/namespaces/inkscape"
   version="1.0"
   id="Capa_1"
   x="0px"
   y="0px"
   viewBox="0 0 911.59998 604.92499"
   enable-background="new 0 0 1400 978"
   xml:space="preserve"
   sodipodi:docname="blogger.svg"
   width="911.59998"
   height="604.92499"
   inkscape:version="0.92.3 (2405546, 2018-03-11)"><metadata
   id="metadata133"><rdf:RDF><cc:Work
       rdf:about=""><dc:format>image/svg+xml</dc:format><dc:type
         rdf:resource="http://purl.org/dc/dcmitype/StillImage" /><dc:title></dc:title></cc:Work></rdf:RDF></metadata><defs
   id="defs131" /><sodipodi:namedview
   pagecolor="#ffffff"
   bordercolor="#666666"
   borderopacity="1"
   objecttolerance="10"
   gridtolerance="10"
   guidetolerance="10"
   inkscape:pageopacity="0"
   inkscape:pageshadow="2"
   inkscape:window-width="1064"
   inkscape:window-height="755"
   id="namedview129"
   showgrid="false"
   fit-margin-top="0"
   fit-margin-left="0"
   fit-margin-right="0"
   fit-margin-bottom="0"
   inkscape:zoom="2.3193102"
   inkscape:cx="245.95179"
   inkscape:cy="193.6677"
   inkscape:window-x="0"
   inkscape:window-y="0"
   inkscape:window-maximized="0"
   inkscape:current-layer="g126" />
<g
   id="g126"
   transform="translate(-244.3,-186.6)">
	<path
   d="m 754.9,186.6 c 1,0.8 2.3,0.6 3.4,0.9 6.2,1.8 10.6,5.5 12.4,11.9 0.3,1.1 0.8,1.6 1.8,1.9 2.2,0.7 4.4,1.4 6.6,2.2 1,0.4 2.4,0.4 2.3,2 -0.1,1.4 -1.3,1.5 -2.3,1.8 -2.6,0.8 -5.2,1.7 -7.8,2.4 -0.8,0.2 -1.4,0.7 -1.7,1.5 -2.3,4.7 -6,7.8 -11,9.2 -0.3,0.1 -0.6,0.2 -0.9,0.3 -0.1,0.1 -0.2,0.2 -0.4,0.2 0.2,0.1 0.4,0.2 0.6,0.2 0.6,0 1.3,0 1.9,0 12.5,0 25,0 37.4,0 3.4,0 3.9,0.7 2.3,3.8 -2.9,5.3 -6.9,9.4 -12.2,12.2 -0.9,0.5 -1.5,1 -1.9,2 -2.7,7.1 -7.1,13 -13.5,17.3 -0.4,0.2 -1,0.4 -0.8,1 0.1,0.4 0.7,0.3 1.1,0.4 2,0.5 4.1,0.9 6,1.5 1.2,0.4 1.7,0 2.3,-1 1.9,-3.1 3.8,-6.1 5.7,-9.2 0.2,-0.3 0.4,-0.7 0.6,-1 0.4,-0.7 0.9,-1.3 1.9,-1.1 0.8,0.2 1.1,0.8 1.3,1.5 0.6,2.4 1.2,4.8 1.9,7.2 0.5,1.6 0.3,3.8 1.6,4.6 1.2,0.7 3,-0.4 4.6,-0.7 2.2,-0.4 4.4,-0.9 6.6,-1.4 0.9,-0.2 2,-0.7 2.7,0.3 0.8,1 0.1,2 -0.5,2.8 -1.7,2.8 -3.4,5.6 -5.2,8.4 -0.7,1.1 -0.6,1.7 0.4,2.6 7.3,6.5 12.2,14.5 15.1,23.8 4.2,13.6 8.7,27.1 13,40.7 0.5,1.4 1.4,1.4 2.3,1.5 4.9,0.7 9.4,2.4 13.5,5.3 10.5,7.2 15.6,20.2 12.8,32.6 -2.9,12.7 -12.9,22.2 -25.5,24.3 -1.9,0.3 -3.8,0.4 -5.7,0.4 -1.8,0 -1.8,0 -1.9,1.9 0,0.5 0,1 0,1.4 0,29.5 0,59 0,88.6 0,4.7 1.2,6.9 6.9,7.5 2.8,0.3 5.6,0.5 8.3,1.1 5.5,1.3 9.8,4.2 13,8.8 1.9,2.7 3.2,5.7 4.3,8.8 6,16.6 12.1,33.2 18.1,49.8 0.7,2 1.6,4 2.4,6 0.3,0.9 0.8,1 1.6,0.8 2,-0.7 3.9,-1.4 5.9,-2 1.8,-0.6 2.3,-0.4 2.9,1.4 3,8.9 5.9,17.9 8.8,26.9 0.6,1.9 0.3,2.3 -1.6,3 -1,0.4 -2.1,0.7 -3.2,1.1 -1.5,0.5 -1.5,0.6 -0.9,2 1.6,4.1 3.3,8.2 4.9,12.2 7.9,19.4 15.8,38.8 23.7,58.2 0.5,1.3 1.2,2.3 2.5,2.9 3.4,1.7 5.8,4.5 7.2,8 0.3,0.7 0.6,1.3 0.9,2 0.1,0.2 0.2,0.6 0.3,0.6 0.3,0 0.5,-0.3 0.6,-0.6 0.1,-0.3 0.2,-0.6 0.4,-0.9 2.4,-4.7 7.7,-6.5 12.5,-4.3 0.4,0.2 0.7,0.4 1,0.6 0.8,0.5 1.1,0.2 1.3,-0.6 0.9,-3.5 1.8,-7 2.7,-10.4 1.5,-5.9 3,-11.8 4.6,-17.6 0.6,-2.5 0.8,-2.5 3.2,-2.6 0.5,0 1,0 1.4,0 0.5,0 1,-0.1 1,-0.8 0,-0.6 -0.1,-1 -0.8,-1.2 -2.3,-0.6 -2.3,-0.7 -2.4,-2.9 0,-1.6 0,-3.2 0,-4.8 0.1,-1.9 0.4,-2.3 2.3,-2.3 3,0 6.1,0 9.1,0 7.2,0 14.4,0 21.6,0 2.6,0 2.7,0.2 2.7,2.7 0,1.7 0,3.4 0,5 0,1.3 -0.2,2.3 -1.8,2.2 -0.9,0 -1.1,0.5 -1,1.3 0.1,0.8 0.7,0.7 1.3,0.7 1,0.1 1.9,-0.1 2.9,0.2 1.3,0.5 1.3,0.4 1.3,-1 0,-13 0,-25.9 0,-38.9 0,-3.6 0,-3.6 3.5,-3.6 1.8,0 3.5,0 5.3,0 0.9,0 1.6,-0.1 1.6,-1.2 0,-0.9 0,-1.6 -1.3,-1.8 -1.7,-0.2 -1.8,-0.4 -1.9,-2.1 0,-1.9 -0.1,-3.8 0,-5.8 0.1,-1.7 0.4,-2.1 2.2,-2.1 10.4,0 20.8,0 31.2,0 2,0 2.2,0.3 2.3,2.2 0,1.8 0,3.7 0,5.5 0,1.2 -0.2,2.3 -1.8,2.3 -1.2,0 -1.1,0.9 -1.1,1.7 0,0.9 0.4,1.3 1.3,1.3 2.2,0 4.5,0 6.7,0 1.8,0 2.1,0.4 2.2,2.1 0,0.6 0,1.1 0,1.7 0,27.7 0,55.4 0,83 0,0.6 0,1.3 0,1.9 -0.1,1.4 -0.5,1.8 -1.9,1.9 -0.7,0.1 -1.4,0 -2.2,0 -25.6,0 -51.2,0 -76.8,0 -0.6,0 -1.1,0 -1.7,0 -2.1,0 -2,0 -2.3,2.1 -0.1,1.2 -0.3,2.4 -0.4,3.6 -0.8,6.2 -7,9.9 -12.8,7.5 -1.4,-0.6 -2.3,-0.6 -3.7,0.2 -5.3,3.1 -11.9,0.3 -13.7,-5.6 -0.5,-1.7 -0.5,-1.7 -2.1,-1.2 -4.9,1.8 -9.7,-0.1 -11.9,-4.7 -0.6,-1.3 -1.3,-1.9 -2.8,-1.9 -9.7,0.1 -19.4,0 -29,0 -2.2,0 -2.2,0 -1.4,2.1 5.5,14.8 11,29.7 16.6,44.5 3.7,10 7.5,20.1 11.3,30.1 0.8,2 0.9,3.6 -0.6,5.3 -1,1.2 -1.7,2.5 -2.5,3.8 -1.2,1.7 -1.4,1.8 -3.3,1 -7.1,-2.8 -14.4,-5.3 -21.8,-7.3 -13.7,-3.7 -27.6,-5.9 -41.8,-6.6 -30.1,-1.5 -59.1,3.7 -86.8,15.4 -1.7,0.7 -3.2,0.7 -4.8,0 -14.8,-6.3 -30.1,-10.7 -46,-13.2 -11.7,-1.9 -23.5,-2.7 -35.4,-2.4 -23.7,0.7 -46.6,5.2 -68.7,14 -2.6,1 -2.6,1 -4.1,-1.2 -0.6,-0.9 -1.1,-2 -1.8,-2.8 -1.7,-2 -1.7,-3.9 -0.8,-6.3 9.2,-24.4 18.3,-48.9 27.5,-73.4 1.2,-3.1 1,-2.7 -2,-2.7 -97.8,0 -195.7,0 -293.5,0 -3.9,0 -4.1,0.6 -4,-4.1 0,-0.3 0,-0.6 0,-1 -0.2,-2.6 0.5,-4.6 2.2,-6.7 8.1,-9.9 7.6,-23.6 -0.9,-33.2 -0.9,-1 -1.3,-1.9 -1.3,-3.2 0.1,-1.5 0,-3 0,-4.6 0,-2.6 0.2,-2.8 2.7,-2.8 5.1,0 10.2,0 15.4,0 3.6,0 7.2,0 10.8,0 1.1,0 1.5,-0.3 1,-1.4 -0.6,-1.4 -0.7,-3 -0.5,-4.5 0.5,-3.2 3.1,-5.6 6.3,-5.9 0.7,-0.1 1.4,0 2.2,0 10.1,0 20.2,0 30.2,0 0.6,0 1.3,0 1.9,0 0.8,0 1.2,-0.3 1.2,-1.1 0,-0.8 0,-1.6 0,-2.4 0,-56.5 0,-113 0,-169.4 0,-6.8 2.4,-12.4 7.1,-17.2 15.6,-15.5 31.1,-31.1 46.7,-46.7 1.9,-1.9 1.9,-1.9 -0.2,-3.6 -4.1,-3.4 -8.3,-6.8 -12.4,-10.2 -2.6,-2.2 -3.3,-5 -1.9,-7.7 0.4,-0.7 0.9,-1.3 1.4,-2 2.4,-3.1 4.9,-6.1 7.4,-9.2 1.5,-1.9 1.5,-1.9 0.3,-4.1 -1.5,-2.6 -2.9,-5.2 -4.4,-7.7 -0.3,-0.5 -0.5,-1 -0.8,-1.5 -0.4,-0.9 -0.2,-1.6 0.6,-2 0.8,-0.5 1.5,-0.1 2,0.6 0.3,0.5 0.6,1 0.9,1.4 1.3,2.4 2.6,4.8 4,7.1 1,1.7 1,1.7 2.2,0.2 1.8,-2.2 3.6,-4.3 5.2,-6.6 2.8,-3.9 7.1,-3.8 10.2,-1.2 7.2,6 14.6,11.8 21.8,17.7 4.6,3.7 9.6,6.6 15.1,8.6 22.6,8.2 45.2,16.6 67.9,24.6 5.8,2 7,7.1 3.3,11.7 -17.2,21 -34.2,42.3 -51.3,63.5 -1,1.2 -2,2.3 -3.5,2.8 -2.7,0.9 -5.4,0 -7.1,-2.5 -1.5,-2.2 -2.8,-4.4 -4.3,-6.7 -11.8,-18.7 -23.7,-37.4 -35.5,-56.2 -3.5,-5.5 -7.9,-10.1 -13,-14 -1.2,-0.9 -2.2,-2.6 -3.6,-2.6 -1.5,0 -2.4,1.9 -3.5,3 -15.2,15.1 -30.3,30.3 -45.5,45.5 -4.2,4.2 -6.2,9.1 -6.2,15 0,56.5 0,113 0,169.4 0,3.9 -0.5,3.4 3.5,3.4 10.1,0 20.2,0 30.2,0 1.1,0 2.2,0 3.3,0.4 3.7,1.3 5.6,5.2 4.5,9.2 -0.1,0.3 -0.2,0.6 -0.3,0.9 -0.6,1.2 0.1,1.4 1,1.4 0.6,0 1.3,0 1.9,0 12.4,0 24.8,0 37.2,0 1.3,0 2.6,0.1 3.8,0.1 0.2,0 0.4,-0.1 0.6,-0.2 -0.1,-0.2 -0.1,-0.5 -0.3,-0.6 -0.6,-0.6 -1.3,-1.2 -2,-1.8 -12.2,-10.7 -24.4,-21.4 -36.7,-32.1 -0.4,-0.4 -0.8,-0.7 -1.3,-1.1 -0.8,-0.7 -0.8,-1.6 -0.2,-2.4 1.5,-1.8 3,-3.5 4.6,-5.2 0.6,-0.6 1.5,-0.5 2.3,-0.6 10.6,-1.1 20.1,-9.3 22.3,-20.8 0.3,-1.8 0.4,-3.7 0.4,-5.5 0,-1.1 0.3,-2 1,-2.8 1.1,-1.2 2.2,-2.5 3.3,-3.8 1.5,-1.6 1.9,-1.7 3.6,-0.2 3.7,3.2 7.5,6.5 11.2,9.8 28.3,24.8 56.6,49.5 84.9,74.2 3.8,3.3 6.7,7.1 7.9,12 1.6,6.6 0.7,12.9 -3.5,18.2 -4,5 -7.9,10.1 -12.9,14.1 -0.2,0.2 -0.6,0.4 -0.5,0.7 0.1,0.4 0.5,0.3 0.8,0.3 0.5,0 1,0 1.4,0 17.6,0 35.2,0 52.8,0 2.9,0 2.4,0.3 3.4,-2.3 1.1,-2.8 2.2,-5.7 3.2,-8.5 0.5,-1.4 1.3,-2.2 2.7,-2.8 7.7,-3.2 15.6,-5.8 23.7,-7.8 0.6,-0.2 1.6,-0.1 1.7,-0.7 0.1,-0.6 -0.9,-0.6 -1.5,-0.8 -11.2,-4.2 -22.5,-8.4 -33.7,-12.6 -9.4,-3.6 -15.2,-10.3 -17.2,-20.2 -1.1,-5.2 -0.5,-10.3 1.6,-15.3 2.8,-6.6 5.5,-13.1 8.3,-19.7 0.9,-2.1 1.3,-2 -1.3,-2.9 -1.4,-0.5 -2.7,-0.9 -4.1,-1.4 -1.6,-0.6 -1.8,-1.1 -1.4,-2.8 0.3,-1.1 0.7,-2.1 1,-3.2 2.6,-7.7 5.1,-15.5 7.7,-23.2 0.8,-2.5 1.2,-2.7 3.6,-1.9 1.9,0.6 3.8,1.3 5.7,2 0.8,0.3 1.2,0.1 1.5,-0.6 0.4,-1.1 0.8,-2.1 1.2,-3.1 6.4,-17.6 12.8,-35.3 19.3,-52.9 1,-2.8 2.2,-5.5 3.8,-8 4.1,-6.5 10.1,-9.6 17.5,-10.2 1.7,-0.2 3.3,-0.3 5,-0.5 4.4,-0.6 6,-2.4 6,-6.8 0,-3.8 0,-7.5 0,-11.3 0,-2.1 0,-2.1 -2,-2.5 -18,-3.7 -32.3,-13.1 -42.8,-28.1 -4.5,-6.4 -7.3,-13.6 -9.7,-21 -8.8,-27.6 -17.7,-55.2 -26.5,-82.9 -0.5,-1.7 -1.3,-2.6 -3.1,-3.1 -11.1,-3.2 -21.1,-8.3 -29.5,-16.3 -2.6,-2.5 -4.9,-5.2 -6.9,-8.3 -0.3,-0.4 -0.5,-0.8 -0.7,-1.2 -0.6,-1.4 -0.2,-2.1 1.5,-2.6 4.3,-1.4 8.5,-2.7 12.8,-4.1 32.3,-10.4 64.7,-20.8 97,-31.1 21.5,-6.9 42.9,-13.8 64.4,-20.6 1.8,-0.6 3.7,-1 5.6,-1.4 0.3,-0.1 0.7,-0.2 0.8,-0.4 0.2,-0.5 -0.4,-0.6 -0.7,-0.8 -4.4,-2.5 -8,-5.9 -10.8,-10 -5.8,-8.4 -7.7,-17.8 -6.7,-27.9 0.7,-6.5 2.7,-12.6 6.4,-18.1 5.2,-7.7 12.2,-12.7 21.6,-14.2 0.4,-0.1 0.8,0 1.1,-0.4 2.1,-0.6 4,-0.6 5.9,-0.6 z"
   id="path2"
   inkscape:connector-curvature="0"
   style="fill:#151d38" />
	<path
   d="m 751.9,496.9 c 2.8,0 5.6,0 8.4,-0.1 13.2,-0.1 26.3,-1.5 39.3,-3.9 7.2,-1.4 14.3,-3.2 21.3,-5.5 1.2,-0.4 2,-0.9 1.8,-2.3 -0.1,-0.4 0,-0.8 0,-1.2 0,-26.9 0,-53.8 0,-80.6 0,-0.5 0,-1 0,-1.4 0.1,-1.1 -0.3,-1.5 -1.4,-1.8 -2,-0.5 -2.5,-1.1 -2.2,-2.2 0.3,-0.9 1,-1.1 2.9,-0.7 3.3,0.7 6.6,0.8 10,0.4 15.4,-2.2 26.2,-16.3 24.2,-31.8 -2.2,-17.5 -20.2,-29.2 -37.4,-23.2 -1.8,0.6 -3.5,1.5 -5.2,2.4 -0.9,0.5 -1.7,0.5 -2.3,-0.4 -0.6,-1 0,-1.7 0.8,-2.2 0.7,-0.4 1.4,-0.8 2.1,-1.2 0.2,-0.1 0.5,-0.3 0.5,-0.5 0,-0.5 -0.4,-0.3 -0.7,-0.4 -0.7,-0.1 -1.4,-0.2 -2.1,-0.3 -5.2,-0.7 -10.1,-2.4 -14.7,-4.8 -10.3,-5.5 -17.8,-13.7 -22.9,-24.1 -1,-2.1 -0.8,-1.9 -2.8,-1.4 -14.7,3.6 -29.5,6.5 -44.5,8.4 -9.9,1.3 -19.9,2.2 -29.9,2.6 -5.2,0.2 -10.4,0.1 -15.6,0.2 -0.4,0 -0.9,-0.2 -1.1,0.3 -0.2,0.4 0.2,0.7 0.5,1 1.5,1.9 3,3.8 4.4,5.7 1.6,2.1 2.9,4.4 4.1,6.7 0.8,1.5 0.5,2.1 -1,2.8 -0.3,0.1 -0.6,0.2 -0.9,0.3 -17.5,5.5 -35.3,9.6 -53.7,10.8 -8.2,0.5 -16.3,0.4 -24.4,-0.6 -3,-0.4 -6,-0.8 -9,-1.5 -0.8,-0.2 -1.2,0.1 -1,1 0.1,0.4 0.3,0.8 0.4,1.1 8.7,27 17.3,54 26,81 1.7,5.4 3.5,10.8 6.5,15.7 13.6,22.4 33.5,33.3 59.7,32.6 6.2,-0.2 12.2,-1.7 18,-3.6 0.8,-0.3 1.6,-0.7 2.5,-0.7 0.7,0 1.2,0.3 1.4,1 0.2,0.7 0,1.3 -0.6,1.7 -0.3,0.2 -0.6,0.3 -0.9,0.4 -6,2.1 -12.1,3.7 -18.4,4.2 -4.1,0.3 -8.1,0.3 -12.2,0 -1,-0.1 -1.5,0.2 -1.5,1.3 0.1,1.1 0.1,2.2 0,3.4 -0.1,1.2 0.3,1.9 1.6,2.2 2.9,0.7 5.7,1.5 8.6,2.2 15.4,3.6 30.9,5.9 46.7,7 5,-0.3 9.8,-0.2 14.7,0 z"
   id="path4"
   inkscape:connector-curvature="0"
   style="fill:#fae0d6" />
	<path
   d="m 823.2,618.9 c 0,-17.4 0,-34.9 0,-52.3 0,-0.6 0,-1.3 0,-1.9 0,-1 0.5,-1.7 1.6,-1.7 1,0 1.4,0.7 1.4,1.6 0,0.5 0,1 0,1.4 -0.1,1.1 0.2,2.2 0.6,3.3 2.7,6.7 5.3,13.4 8,20 0.7,1.8 0.7,1.8 2.6,1.1 6.3,-2.2 12.5,-4.4 18.8,-6.6 5.9,-2.1 11.8,-4.1 17.6,-6.2 2.2,-0.8 2.2,-0.8 1.4,-3 -0.9,-2.6 -1.9,-5.3 -2.9,-7.9 -5.7,-15.7 -11.4,-31.4 -17.1,-47.1 -1,-2.6 -2.1,-5.2 -3.7,-7.5 -3.1,-4.8 -7.5,-7.5 -13.1,-8.3 -2.5,-0.3 -5.1,-0.6 -7.6,-0.9 -2.7,-0.4 -5.1,-1.3 -6.7,-3.7 -1.1,-1.7 -1.1,-1.7 -2.9,-1.1 -19.6,6.3 -39.7,8.9 -60.2,9.4 -12.1,0.2 -24.1,-0.2 -36.2,-1.6 -10.5,-1.2 -20.9,-2.8 -31.2,-5.1 -4,-0.9 -7.9,-2 -11.9,-3 -0.8,-0.2 -1.7,-0.7 -2.3,0.5 -1.6,3.1 -4.4,4.3 -7.6,4.7 -2.5,0.3 -5.1,0.6 -7.6,0.9 -5.4,0.8 -9.7,3.6 -12.7,8.2 -1.5,2.4 -2.7,4.9 -3.7,7.5 -1.5,4.2 -3.1,8.4 -4.6,12.6 -5.2,14.2 -10.3,28.4 -15.5,42.6 -0.7,2.1 -0.7,2.1 1.4,2.8 12.1,4.3 24.3,8.5 36.4,12.8 2.1,0.7 2.1,0.7 2.9,-1.3 2.2,-5.4 4.3,-10.8 6.5,-16.2 1.1,-2.6 2.3,-5.1 1.9,-8 0,-0.2 0,-0.3 0,-0.5 0.1,-0.8 0.6,-1.3 1.4,-1.4 0.8,0 1.4,0.5 1.5,1.3 0.1,0.8 0.1,1.6 0.1,2.4 0,25.1 0,50.2 0,75.3 0,0.6 0.1,1.1 0,1.7 -0.2,1.3 0.3,2 1.6,2.5 3.4,1.1 6.8,1.7 10.4,1.1 3.1,-0.6 6.3,-1.2 9.4,-1.9 3.1,-0.6 6.1,-1.2 9.3,-0.8 1.4,0.2 2.7,0.5 4,0.9 0.9,0.3 1.2,-0.1 1,-0.9 -0.1,-0.5 -0.3,-0.9 -0.4,-1.4 -1.2,-4.6 -2.6,-9.2 -3.7,-13.9 -3.1,-12.5 -5.6,-25.1 -6.7,-38 -0.1,-1.3 -0.1,-2.6 -0.1,-3.8 0,-0.7 0.4,-1 1,-1.2 0.6,-0.2 1.2,0 1.5,0.5 0.5,0.7 0.9,1.5 1.3,2.3 2.7,5.4 5.1,10.9 7.2,16.5 4.8,12.6 8.7,25.6 12,38.7 0.4,1.6 1,2.5 2.8,2.9 5,1.2 8.6,5.7 9.3,10.8 0.4,3.1 0,6.2 -0.1,9.3 -0.1,1.7 -1.1,3.1 -2.6,3.7 -2.1,0.9 -2.2,2.7 -2.4,4.5 0,0.5 0.1,1.1 0,1.7 -0.2,2.1 0.5,3.3 2.5,3.9 4.4,1.3 8.7,2.8 12.8,4.7 1.5,0.7 2.8,0.6 4.3,0 16.9,-7 34.6,-10.9 52.9,-11.7 4.6,-0.2 9.1,-0.2 13.7,0 2.4,0.1 2.4,0.1 2.4,-2.4 0,-0.5 0,-1 0,-1.4 0,-17.4 0,-34.4 0,-51.4 z"
   id="path6"
   inkscape:connector-curvature="0"
   style="fill:#acdcf6" />
	<path
   d="m 753.2,734.3 c 0,14.2 0,28.3 0,42.5 0,3.1 -0.1,3.1 2.7,1.9 31.9,-12.8 64.8,-17.2 98.9,-13.3 17.3,2 34.1,6.3 50.3,12.6 0.7,0.3 1.6,1 2.1,0.6 0.6,-0.6 -0.2,-1.5 -0.4,-2.2 -10.5,-28.3 -21.1,-56.6 -31.6,-84.9 -0.6,-1.7 -1.6,-2.7 -3.3,-3.4 -23.7,-9.5 -48.1,-13.1 -73.5,-10.6 -14.8,1.5 -29.1,5.1 -42.9,10.7 -2.8,1.1 -2.4,0.8 -2.4,3.6 0.1,14.2 0.1,28.4 0.1,42.5 z"
   id="path8"
   inkscape:connector-curvature="0"
   style="fill:#ffffff" />
	<path
   d="m 750.2,734.3 c 0,-14.2 0,-28.3 0,-42.5 0,-0.6 0,-1.3 0,-1.9 0,-0.6 -0.2,-1 -0.8,-1.3 -2.5,-0.9 -4.9,-1.9 -7.4,-2.8 -0.7,-0.3 -1,0 -0.8,0.8 0.6,2.2 0.5,4.4 0.3,6.7 -0.3,4.4 -1.8,8.6 -1.5,13.1 0.1,0.7 -0.4,1.2 -1.1,1.4 -0.7,0.2 -1.4,-0.2 -1.6,-0.8 -0.5,-1.8 -2,-2.1 -3.4,-2.6 -4.7,-1.5 -9.5,-2.7 -14.4,-3.8 -0.5,-0.1 -1.1,-0.3 -1.6,-0.4 -0.7,-0.2 -1,-0.8 -0.9,-1.5 0.1,-0.8 0.7,-1.3 1.5,-1.3 0.5,0 0.9,0.1 1.4,0.2 3.4,0.7 6.7,1.5 10,2.4 0.6,0.2 1.2,0.4 1.9,0.5 0.4,0.1 0.6,-0.2 0.4,-0.5 -0.4,-0.5 -0.8,-1 -1.2,-1.5 -1.5,-1.8 -2.9,-3.6 -3.9,-5.8 -1.2,-2.6 -1.2,-5.1 0.2,-7.6 0.6,-1 2,-2 0.7,-3.4 -1.3,-1.3 -2.4,-0.2 -3.6,0.3 -1.1,0.4 -1.1,1 -0.9,2 0.7,4.1 -1.9,7.3 -6.1,7.3 -1.2,0 -1.6,0.4 -2,1.5 -0.6,1.8 -1.9,3.1 -3.7,3.8 -0.6,0.2 -1.2,0.3 -1.6,1 -0.5,0.9 -1.4,0.9 -2.3,0.8 -8.9,-1.2 -17.8,-1.8 -26.8,-1.6 -0.6,0 -1.3,0 -1.9,0 -0.7,0 -1.2,-0.4 -1.3,-1.1 -0.1,-0.8 0.3,-1.4 1,-1.7 0.4,-0.1 0.8,-0.1 1.2,-0.1 5.4,-0.1 10.9,-0.2 16.3,0.3 0.8,0.1 1.6,0.1 2.4,0.1 0.2,0 0.4,0 0.4,-0.1 0.1,-0.3 -0.1,-0.4 -0.3,-0.5 -0.4,-0.2 -0.7,-0.3 -1.1,-0.4 -11.8,-4.4 -23.6,-8.9 -35.5,-13.3 -1,-0.4 -1.9,-0.5 -3,-0.2 -9.4,1.9 -18.6,4.8 -27.5,8.3 -1.5,0.6 -2.4,1.5 -3,3.1 -10.5,28.2 -21,56.4 -31.5,84.7 -0.3,0.9 -1.3,2 -0.6,2.6 0.6,0.6 1.7,-0.4 2.6,-0.7 18.3,-7.2 37.2,-11.6 56.8,-13.2 13.4,-1.1 26.8,-0.9 40.2,0.7 17.8,2.1 35,6.5 51.6,13.2 2.5,1 2.4,1.2 2.4,-1.6 0,-14.1 0,-28.4 0,-42.6 z"
   id="path10"
   inkscape:connector-curvature="0"
   style="fill:#ffffff" />
	<path
   d="m 433.7,379.7 c 0,1.5 1,2.3 2,3.1 7.3,6 14.7,12.1 22,18.1 4.4,3.6 8.2,7.8 11.3,12.7 12.7,20.2 25.5,40.4 38.3,60.6 0.6,0.9 1.1,1.9 1.8,2.8 1.3,1.6 3.1,1.7 4.6,0.3 0.3,-0.3 0.6,-0.7 0.9,-1.1 17.1,-21.2 34.1,-42.4 51.2,-63.5 2.8,-3.4 1.8,-5.5 -2,-6.9 -22.7,-8.2 -45.4,-16.5 -68.1,-24.7 -5.8,-2.1 -11,-5.1 -15.8,-8.9 -7.3,-6 -14.7,-11.9 -22,-17.8 -2.3,-1.8 -3.6,-1.7 -5.5,0.6 -1.7,2 -3.3,4.1 -5,6.2 -4.2,5.2 -8.4,10.5 -12.6,15.7 -0.5,0.9 -1.2,1.7 -1.1,2.8 z"
   id="path12"
   inkscape:connector-curvature="0"
   style="fill:#ffffff" />
	<path
   d="m 689.2,650.4 c -4.5,0 -8.5,-1.1 -12.2,-3.1 -10.8,-5.9 -21.6,-11.8 -32.4,-17.7 -0.4,-0.2 -0.7,-0.4 -1,-0.6 -0.8,-0.5 -1.2,-1.1 -0.8,-2 0.5,-1 1.4,-1 2.3,-0.6 0.4,0.2 0.8,0.4 1.3,0.7 1.5,0.8 3,1.6 4.4,2.4 0.8,0.5 1.3,0.3 1.6,-0.6 0.7,-1.9 1.6,-3.9 2.3,-5.8 0.5,-1.4 0.5,-1.5 -1,-2 -12.1,-4.3 -24.3,-8.5 -36.4,-12.8 -1.5,-0.5 -1.6,-0.5 -2.3,1.1 -3,7 -5.9,14 -8.8,21 -1.6,3.9 -2.1,8.1 -1.3,12.2 1.7,9.2 7,15.4 15.8,18.7 20.1,7.5 40.3,15.1 60.4,22.6 8.8,3.3 17.5,6.6 26.3,9.8 2.5,0.9 4.2,0.4 5.1,-1.6 0.8,-1.7 0.4,-2.7 -1.7,-4.3 -3.8,-2.9 -7.7,-5.7 -11.5,-8.6 -1.4,-1.1 -1.7,-1.9 -1.1,-2.7 0.6,-0.9 1.4,-0.8 2.9,0.3 2.1,1.5 4.1,3.1 6.2,4.6 2.9,2.1 5.8,4.3 8.7,6.4 1.5,1.1 3,0.8 4.1,-0.5 1.1,-1.3 1,-2.8 -0.2,-4.1 -0.3,-0.3 -0.7,-0.6 -1.1,-1 -4.2,-3.8 -8.4,-7.7 -12.6,-11.5 -0.4,-0.3 -0.8,-0.6 -1.1,-1 -0.6,-0.7 -0.6,-1.5 0.1,-2.2 0.6,-0.6 1.3,-0.6 1.9,-0.1 0.4,0.3 0.8,0.7 1.3,1.1 3.5,3.1 7.1,6.3 10.6,9.4 0.6,0.5 1.2,1 1.9,1.4 1.1,0.5 2.2,0.4 3.1,-0.5 0.9,-0.8 1.2,-1.8 0.9,-3 -0.2,-0.8 -0.8,-1.2 -1.3,-1.7 -4,-4.1 -8.1,-8.2 -12.1,-12.3 -0.4,-0.4 -0.8,-0.8 -1.2,-1.2 -0.6,-0.7 -0.7,-1.5 0,-2.2 0.7,-0.7 1.4,-0.6 2.1,0 0.7,0.6 1.3,1.2 1.9,1.8 4.2,4 8.3,7.9 12.5,11.9 0.5,0.4 0.9,0.9 1.5,1.2 2,1.1 4,0 4.1,-2.2 0.1,-0.9 -0.2,-1.8 -0.7,-2.5 -3.6,-5.2 -7.1,-10.5 -11,-15.4 -4,-5 -9.6,-6.7 -15.9,-5.6 -2.4,0.4 -4.8,1 -7.3,1.5 -2.8,0.6 -5.6,1.4 -8.3,1.3 z"
   id="path14"
   inkscape:connector-curvature="0"
   style="fill:#fae0d6" />
	<path
   d="m 402.8,692.6 c 24.5,0 48.9,0 73.4,0 1.3,0 2.6,0 3.8,-0.3 5.6,-1.4 8.9,-6 8.9,-12.4 0,-3.8 0.6,-3.5 -3.4,-3.5 -18.1,0 -36.1,0 -54.2,0 -0.8,0 -1.6,0 -2.4,-0.1 -0.9,-0.1 -1.5,-0.6 -1.4,-1.6 0.1,-0.8 0.6,-1.3 1.5,-1.3 0.7,0 1.4,0 2.2,0 16.1,0 32.1,0 48.2,0 2.6,0 5.3,0 7.9,0 1.2,0 1.8,-0.3 1.7,-1.6 -0.1,-1.1 0.1,-2.2 0,-3.4 -0.4,-4.9 -2.7,-8.5 -7.2,-10.4 -1.8,-0.8 -3.7,-0.9 -5.6,-0.9 -49.2,0 -98.4,0 -147.6,0 -0.5,0 -1,0 -1.4,0 -0.9,0 -1.2,0.3 -0.7,1.1 0.9,1.3 1.8,2.7 2.4,4.1 0.3,0.6 0.8,1 1.5,0.9 0.6,0 1.3,0 1.9,0 13.5,0 27,0 40.5,0 0.7,0 1.4,0 2.2,0.1 0.8,0.1 1.3,0.7 1.3,1.5 0,0.8 -0.5,1.3 -1.4,1.4 -0.6,0 -1.3,0 -1.9,0 -13.2,0 -26.4,0 -39.6,0 -0.6,0 -1.3,0 -1.9,0 -0.6,0 -0.8,0.4 -0.7,0.9 0.2,0.9 0.4,1.7 0.5,2.6 1.3,7.4 0,14.3 -4,20.7 -0.4,0.6 -1.2,1.2 -0.9,1.8 0.4,0.8 1.4,0.3 2.2,0.4 0.5,0.1 1,0 1.4,0 24.2,0 48.5,0 72.8,0 z"
   id="path16"
   inkscape:connector-curvature="0"
   style="fill:#ffffff" />
	<path
   d="m 552.5,692.6 c 3.6,0 6.3,-1.2 8.6,-3.5 0.6,-0.6 1.1,-1.2 1.6,-1.8 1.9,-2.2 1.9,-2.2 -0.3,-4.1 -17.4,-15.3 -34.9,-30.5 -52.3,-45.8 -0.5,-0.4 -1,-0.8 -1.4,-1.3 -0.5,-0.6 -0.5,-1.4 0,-2 0.5,-0.6 1.2,-0.7 1.9,-0.2 0.6,0.5 1.3,1 1.9,1.5 17,14.9 34,29.8 51.1,44.7 1,0.9 1.9,2.4 3.2,2.3 1.1,-0.1 1.8,-1.7 2.6,-2.6 4.8,-5.6 4.3,-12.3 -1.2,-17.2 -30.9,-27.1 -61.8,-54.1 -92.8,-81.2 -0.5,-0.4 -1,-0.8 -1.5,-1.2 -0.5,-0.4 -0.9,-0.2 -1,0.4 -0.2,1.2 -0.2,2.4 -0.6,3.5 -0.6,1.8 0,2.8 1.3,4 17.6,15.3 35.2,30.7 52.7,46.1 0.5,0.5 1.1,0.9 1.6,1.5 0.6,0.6 0.6,1.3 0.1,1.9 -0.5,0.6 -1.3,0.7 -1.9,0.3 -0.6,-0.4 -1.1,-0.9 -1.7,-1.4 -17.2,-15.1 -34.4,-30.1 -51.6,-45.2 -0.5,-0.4 -1,-0.8 -1.4,-1.3 -0.5,-0.4 -0.8,-0.3 -1.1,0.3 -0.3,0.5 -0.5,1 -0.8,1.5 -3.9,6.8 -9.7,11.4 -17.2,13.7 -0.7,0.2 -1.8,0.1 -1.9,0.7 -0.2,0.8 0.9,1.1 1.4,1.7 0.3,0.3 0.7,0.6 1.1,1 22,19.2 43.9,38.4 65.9,57.6 8.7,7.6 17.3,15.2 26,22.8 2.2,2.1 4.8,3.4 7.7,3.3 z"
   id="path18"
   inkscape:connector-curvature="0"
   style="fill:#ffffff" />
	<path
   d="m 891.2,699.7 c 0.5,0 1,0 1.4,0 2.2,0 4.5,0 6.7,0 1.5,0 1.5,-0.1 1.3,-1.4 0,-0.3 -0.2,-0.6 -0.2,-0.9 -1.3,-8.8 4.6,-16.8 13.3,-18 1,-0.1 2.1,-0.1 3.1,-0.1 0.8,0 1,-0.4 0.7,-1.1 -0.2,-0.5 -0.4,-1 -0.6,-1.6 -3.1,-7.6 -6.2,-15.2 -9.3,-22.9 -6,-14.7 -12,-29.4 -18,-44.2 -0.9,-2.2 -0.9,-2.2 -3,-1.5 -12.3,4.3 -24.6,8.6 -36.8,12.9 -1.9,0.7 -1.9,0.7 -1.2,2.7 8,20 15.9,39.9 23.9,59.9 0.5,1.3 1.2,2.2 2.5,2.6 1.4,0.4 2,1.3 2.5,2.6 1.1,3.2 2.4,6.3 3.5,9.4 0.4,1.2 1.1,1.6 2.3,1.6 2.6,-0.1 5.2,0 7.9,0 z"
   id="path20"
   inkscape:connector-curvature="0"
   style="fill:#fae0d6" />
	<path
   d="m 751.7,189.8 c -0.8,0 -1.8,0.1 -2.7,0.2 -0.5,0 -1,0.1 -1.4,0.2 -8.7,1.7 -15.1,6.7 -19.5,14.3 -6.1,10.7 -7.1,22 -2.7,33.5 4.4,11.7 12.9,18.9 25.6,20.4 11.2,1.3 23,-3.9 29.5,-15.7 0.5,-0.9 1.7,-2 1,-2.9 -0.4,-0.6 -1.9,0.2 -2.9,0.4 -13,2.6 -26.4,-3.8 -32.5,-15.5 -0.2,-0.4 -0.4,-0.7 -0.5,-1.1 -0.6,-1.5 -0.1,-2.3 1.5,-2.5 0.6,-0.1 1.3,0 1.9,0 0.7,0 1.4,0.2 2.1,-0.1 -0.5,-0.5 -1.3,-0.6 -1.9,-0.8 -1.6,-0.5 -3.1,-1.2 -4.5,-2.2 -1.2,-0.9 -1.6,-1.8 -1,-2.6 0.8,-1 1.7,-0.6 2.6,0 0.2,0.1 0.4,0.3 0.6,0.4 1.3,0.9 2.8,1.4 4.4,1.8 6.3,1.5 13.1,-1.9 15.9,-7.9 2.8,-6.2 0.9,-13.1 -4.7,-17 -3.3,-2.2 -6.9,-2.9 -10.8,-2.9 z"
   id="path22"
   inkscape:connector-curvature="0"
   style="fill:#ffffff" />
	<path
   d="m 1043.2,675.7 c 0,-7.1 0,-14.2 0,-21.3 0,-0.6 0,-1.1 0,-1.7 0,-0.9 -0.5,-1.3 -1.3,-1.3 -1.3,0 -2.6,0 -3.8,0 -12.3,0 -24.6,0 -36.9,0 -2.4,0 -2.4,0 -2.4,2.4 0,4.2 0,8.3 0,12.5 0,1.8 0.2,3.5 0.7,5.2 1.9,7.3 3.7,14.5 5.7,21.8 0.5,2 0.6,3.6 -1.2,4.9 -0.4,0.3 -0.9,0.7 -0.7,1.1 0.2,0.7 1,0.3 1.5,0.4 0.2,0 0.3,0 0.5,0 11.9,0 23.8,0 35.7,0 0.5,0 1,0 1.4,0 0.6,0 0.9,-0.4 0.9,-0.9 0,-0.6 0,-1.3 0,-1.9 -0.1,-7.1 -0.1,-14.1 -0.1,-21.2 z"
   id="path24"
   inkscape:connector-curvature="0"
   style="fill:#acdcf6" />
	<path
   d="m 826.2,625.6 c 0,3.7 0,7.4 0,11 0,11.6 0,23.2 0,34.8 0,2.7 0,2.7 2.6,3 12.9,1.3 25.6,4 37.8,8.4 0.7,0.3 1.6,1 2.2,0.4 0.4,-0.5 -0.3,-1.4 -0.6,-2.2 -7.2,-18 -14.4,-36.1 -21.6,-54.1 -0.5,-1.3 -0.6,-3.2 -1.8,-3.8 -1.3,-0.7 -2.8,0.6 -4.2,1.1 -2.5,0.8 -2.8,0.6 -3.6,-1.8 -2.7,-8.2 -5.4,-16.4 -8.1,-24.6 -1.2,-3.7 -1.2,-3.7 2.5,-5.2 1.1,-0.4 1.3,-0.9 0.8,-1.9 -1.5,-3.7 -2.9,-7.4 -4.5,-11.1 -0.3,-0.7 -0.3,-2.1 -1.2,-2 -0.5,0 -0.3,1.4 -0.3,2.2 0,15.2 0,30.5 0,45.8 z"
   id="path26"
   inkscape:connector-curvature="0"
   style="fill:#ffffff" />
	<path
   d="m 672.6,767 c -8.2,0 -16.3,0.5 -24.4,1.5 -14,1.7 -27.7,4.9 -41,9.6 -3.4,1.2 -6.7,2.5 -10.1,3.9 -0.5,0.2 -1.3,0.3 -1.1,1 0.4,1.1 1.1,2.2 1.9,3 0.7,0.6 1.5,-0.1 2.2,-0.3 19.6,-7.5 39.8,-11.8 60.7,-13.1 14.8,-0.9 29.4,-0.2 44,2.2 15.7,2.5 30.9,6.9 45.5,13.1 1.2,0.5 2.2,0.4 3.4,-0.1 22.9,-9.6 46.7,-14.8 71.5,-15.6 14.1,-0.4 28.1,0.6 42,3.2 12.5,2.3 24.7,5.7 36.6,10.3 1.9,0.7 2,0.8 2.9,-0.7 1.7,-2.7 1.9,-2.3 -1.1,-3.5 -18.3,-7.4 -37.2,-11.9 -56.9,-13.7 -15.2,-1.4 -30.3,-0.9 -45.4,1.2 -16.9,2.4 -33.3,6.9 -49,13.7 -1.7,0.7 -3.1,0.7 -4.8,0 C 725,772.2 699.3,767.1 672.6,767 Z"
   id="path28"
   inkscape:connector-curvature="0"
   style="fill:#ffffff" />
	<path
   d="m 402.5,650.2 c -25.2,0 -50.4,0 -75.6,0 -0.7,0 -1.4,0 -2.2,0 -0.4,0 -0.7,0.2 -0.9,0.6 -0.7,2.2 0.1,3.2 2.4,3.3 0.6,0 1.1,0 1.7,0 49.3,0 98.5,0 147.8,0 0.7,0 1.4,0 2.2,0 7.5,0.2 13.7,6.3 14,13.8 0.2,4.6 0.2,9.3 0,13.9 -0.3,5.9 -3.3,10.2 -8.8,12.7 -2.2,1 -4.6,1.2 -7,1.2 -49.5,0 -99,0 -148.5,0 -0.9,0 -1.8,0 -2.6,0 -0.4,0 -0.9,0.1 -0.9,0.6 -0.1,1 -0.4,2.1 0.1,3.1 0.4,0.7 1.3,0.3 2,0.4 0.4,0 0.8,0 1.2,0 10.3,0 20.6,0 31,0 39.7,0 79.3,0 119,0 11.3,0 18.9,-9.7 18.6,-18.6 -0.2,-4.2 0,-8.5 0,-12.7 0,-1.2 -0.1,-2.4 -0.3,-3.6 -2.1,-9.5 -10.9,-14.7 -18.4,-14.6 -25.1,0 -50,-0.1 -74.8,-0.1 z"
   id="path30"
   inkscape:connector-curvature="0"
   style="fill:#acdcf6;fill-opacity:1" />
	<path
   d="m 671.6,596.2 c -0.2,-0.9 -1.1,-0.9 -1.9,-1.2 -13,-4.6 -25.9,-9.1 -38.9,-13.7 -4.2,-1.5 -8.4,-3 -12.7,-4.4 -0.6,-0.2 -1.4,-0.7 -1.8,0.4 -1.1,3.4 -2.3,6.8 -3.4,10.2 -0.2,0.6 0,0.9 0.5,1.1 0.5,0.2 1.1,0.4 1.6,0.6 4.4,1.6 8.9,3.1 13.3,4.7 1.2,0.4 1.7,1.3 1.3,2.1 -0.5,1.1 -1.3,1 -2.2,0.7 -1.1,-0.3 -2.1,-0.7 -3.2,-1.1 -3.7,-1.3 -7.4,-2.6 -11.1,-3.9 -0.6,-0.2 -1.4,-0.7 -1.8,0.4 -1,2.9 -1.9,5.8 -2.9,8.6 -0.2,0.7 0,1.2 0.8,1.4 0.4,0.1 0.7,0.3 1.1,0.4 11.9,4.2 23.8,8.3 35.7,12.5 5,1.7 9.9,3.5 14.9,5.2 2.2,0.8 2.2,0.7 2.9,-1.3 0.7,-2.2 1.5,-4.4 2.2,-6.6 0.6,-1.9 0.6,-2 -1.4,-2.7 -7.6,-2.7 -15.2,-5.4 -22.8,-8 -0.6,-0.2 -1.2,-0.4 -1.8,-0.7 -0.7,-0.4 -0.9,-1.1 -0.5,-1.9 0.3,-0.7 0.9,-0.9 1.6,-0.8 0.7,0.2 1.4,0.4 2,0.7 7.5,2.6 15.1,5.3 22.6,7.9 1.8,0.6 1.8,0.6 2.5,-1.2 0.9,-2.8 1.9,-5.6 2.8,-8.4 0.3,-0.1 0.4,-0.5 0.6,-1 z"
   id="path32"
   inkscape:connector-curvature="0"
   style="fill:#acdcf6" />
	<path
   d="m 875.3,597 c -0.9,0.1 -1.6,0 -1.9,-0.8 -0.3,-0.9 -0.1,-1.6 0.8,-2 0.5,-0.2 1,-0.4 1.6,-0.6 4.3,-1.5 8.6,-3 12.9,-4.5 1.7,-0.6 1.7,-0.6 1.1,-2.4 -0.9,-2.8 -1.8,-5.6 -2.8,-8.4 -0.6,-1.8 -0.6,-1.8 -2.3,-1.2 -2.5,0.9 -5,1.8 -7.5,2.6 -14.6,5.1 -29.3,10.3 -43.9,15.4 -2,0.7 -2,0.7 -1.4,2.6 0.9,2.7 1.8,5.5 2.7,8.2 0.6,1.8 0.6,1.9 2.5,1.2 7.5,-2.6 15.1,-5.3 22.6,-7.9 0.7,-0.2 1.4,-0.5 2.1,-0.6 0.6,-0.1 1.1,0.1 1.4,0.6 0.3,0.5 0.4,1 0.1,1.6 -0.3,0.5 -0.8,0.7 -1.4,0.9 -1.6,0.6 -3.2,1.1 -4.8,1.7 -6.4,2.2 -12.8,4.5 -19.2,6.7 -1.7,0.6 -1.7,0.6 -1.2,2.4 0.8,2.4 1.7,4.8 2.4,7.3 0.4,1.2 0.9,1.6 2,1 0.4,-0.2 0.9,-0.3 1.4,-0.5 10.3,-3.6 20.7,-7.2 31,-10.8 6.5,-2.3 13,-4.5 19.4,-6.8 1.7,-0.6 1.7,-0.6 1.2,-2.4 -0.8,-2.4 -1.6,-4.9 -2.4,-7.3 -0.5,-1.6 -0.6,-1.6 -2.2,-1 -4.3,1.5 -8.6,3 -12.9,4.5 -0.4,0.1 -0.9,0.3 -1.3,0.5 z"
   id="path34"
   inkscape:connector-curvature="0"
   style="fill:#acdcf6" />
	<path
   d="m 552.7,699.7 c 5.4,-0.1 10.1,-2 13.8,-6.1 3,-3.3 5.9,-6.6 8.7,-9.9 3,-3.6 4.5,-7.7 4.3,-12.4 -0.2,-5.7 -2.6,-10.2 -6.9,-14 -31.6,-27.6 -63.1,-55.2 -94.6,-82.8 -0.4,-0.3 -0.7,-0.6 -1.1,-1 -0.5,-0.5 -0.9,-0.3 -1.4,0.1 -2.1,1.9 -2.1,2.1 0.1,4 31.5,27.6 63.1,55.2 94.6,82.8 6.6,5.8 7.2,14.7 1.4,21.3 -2.5,2.9 -5,5.8 -7.6,8.7 -5.8,6.5 -14.6,7 -21.2,1.3 -23.4,-20.4 -46.7,-40.9 -70.1,-61.3 -8.3,-7.3 -16.6,-14.5 -24.9,-21.8 -1.6,-1.4 -1.6,-1.4 -3,0.1 -1.2,1.4 -1.2,1.4 0.2,2.8 0.5,0.4 1,0.9 1.4,1.3 20.3,17.8 40.7,35.6 61,53.4 11,9.6 21.9,19.2 32.9,28.8 3.6,3 7.7,4.5 12.4,4.7 z"
   id="path36"
   inkscape:connector-curvature="0"
   style="fill:#acdcf6" />
	<path
   d="m 1020.9,633.1 c 6.8,0 13.6,0 20.4,0 1,0 2,0.1 2,-1.4 0,-5.2 0,-10.4 0,-15.6 0,-1 -0.5,-1.4 -1.5,-1.4 -1.7,0 -3.4,0 -5,0 -3.7,0 -3.7,0 -3.7,-3.7 0,-2.1 0,-2.2 -2.3,-2.2 -6,0 -12,0 -18,0 -3.3,0 -3.3,0 -3.5,3.4 0,0.1 0,0.2 0,0.2 -0.1,1.7 -0.4,2.1 -2.1,2.2 -2.2,0.1 -4.3,0 -6.5,0 -1.8,0 -1.8,0.1 -1.9,1.9 0,4.7 0,9.4 0,14.2 0,2.2 0,2.2 2.2,2.2 6.6,0.2 13.3,0.2 19.9,0.2 z"
   id="path38"
   inkscape:connector-curvature="0"
   style="fill:#acdcf6" />
	<path
   d="m 514.9,699.7 c 7.7,0 15.5,0 23.2,0 0.6,0 1.1,0 1.7,0 0.3,0 0.7,0.1 0.8,-0.2 0.2,-0.4 -0.2,-0.5 -0.4,-0.7 -1,-0.8 -2,-1.6 -2.9,-2.4 -9.6,-8.4 -19.2,-16.8 -28.8,-25.2 -3.1,-2.7 -6.3,-5.5 -9.4,-8.2 -0.2,-0.2 -0.5,-0.4 -0.8,-0.2 -0.1,0.1 -0.1,0.5 0,0.7 0.8,2.8 0.6,5.7 0.6,8.6 0,3.1 0,6.2 0,9.3 0,6.8 -2.8,12.3 -8,16.7 -0.4,0.4 -0.9,0.7 -1.3,1 -0.2,0.2 -0.3,0.6 0.2,0.7 0.6,0.1 1.3,0 1.9,0 7.7,-0.1 15.5,-0.1 23.2,-0.1 z"
   id="path40"
   inkscape:connector-curvature="0"
   style="fill:#ffffff" />
	<path
   d="m 393.5,638.3 c -11.5,0 -23,0 -34.5,0 -0.7,0 -1.4,0 -2.2,0 -2.3,0.3 -3.7,1.9 -3.8,4.2 -0.1,2.4 1.2,4 3.5,4.4 0.9,0.2 1.9,0.2 2.9,0.2 22.6,0 45.2,0 67.9,0 0.9,0 1.8,0 2.6,-0.1 2.5,-0.3 4,-2.1 3.8,-4.7 -0.1,-2.3 -1.8,-3.9 -4.2,-4.1 -0.6,0 -1.3,0 -1.9,0 -11.4,0.1 -22.7,0.1 -34.1,0.1 z"
   id="path42"
   inkscape:connector-curvature="0"
   style="fill:#ccd6da" />
	<path
   d="m 758.3,504.5 c 11.5,0.2 26.4,-1.1 41.2,-4 7.2,-1.4 14.2,-3.2 21.1,-5.4 0.7,-0.2 1.5,-0.2 1.9,-0.9 0.2,-0.4 0.2,-3.7 -0.1,-3.8 -0.9,-0.4 -1.7,0.3 -2.5,0.5 -0.6,0.2 -1.2,0.4 -1.8,0.6 -20,6.1 -40.5,8.3 -61.3,8.5 -12.2,0.1 -24.3,-0.7 -36.4,-2.2 -12.6,-1.6 -24.9,-3.9 -37.2,-7.1 -3.1,-0.8 -3.1,-0.8 -3,2.4 0,1 0.4,1.4 1.3,1.7 0.7,0.2 1.4,0.4 2.1,0.6 23.5,6.1 47.1,9.1 74.7,9.1 z"
   id="path44"
   inkscape:connector-curvature="0"
   style="fill:#151d38" />
	<path
   d="m 1021,648.5 c 2.5,0 5,0 7.4,0 4.3,0 8.6,0 12.9,0 1.8,0 1.8,-0.1 1.9,-1.7 0,-3 0,-6.1 0,-9.1 0,-1.3 -0.5,-1.7 -1.7,-1.7 -0.6,0 -1.3,0 -1.9,0 -12.1,0 -24.3,0 -36.4,0 -1,0 -1.9,0 -2.9,0 -1.3,-0.1 -1.7,0.5 -1.6,1.7 0.1,2.9 0,5.7 0,8.6 0,2.1 0,2.1 2.1,2.1 6.8,0.1 13.5,0.1 20.2,0.1 z"
   id="path46"
   inkscape:connector-curvature="0"
   style="fill:#ffffff" />
	<path
   d="m 676.9,610.5 c 0,-10 0,-20 0,-30 0,-0.6 0,-1.3 0,-1.9 0,-0.3 0,-0.7 -0.4,-0.8 -0.4,0 -0.4,0.4 -0.5,0.7 -1.7,4.1 -3.3,8.1 -5,12.2 -0.4,0.9 -0.3,1.5 0.7,1.8 0.4,0.1 0.8,0.3 1.1,0.4 2.4,0.9 2.6,1.2 1.8,3.7 -2,6 -4,12 -5.9,18 -0.9,2.7 -1.7,5.3 -2.6,8 -0.8,2.3 -1.1,2.5 -3.5,1.7 -0.9,-0.3 -1.8,-0.7 -2.7,-1 -1.7,-0.6 -1.7,-0.6 -2.4,1.2 -0.7,1.8 -1.5,3.6 -2.2,5.3 -0.7,1.8 -0.7,1.8 1,2.7 6,3.3 11.9,6.5 17.9,9.8 2.6,1.4 2.7,2 2.7,-1.5 0,-10.1 0,-20.2 0,-30.3 z"
   id="path48"
   inkscape:connector-curvature="0"
   style="fill:#ffffff" />
	<path
   d="m 975.5,688.7 c -1.8,0 -3.5,0 -5.3,0 -6.2,0 -12.5,0 -18.7,0 -1.8,0 -2.1,0.6 -1.6,2.2 0.3,1.1 1,1.2 2,1.2 4.4,0 7.5,2 9.1,6.1 0.4,1.1 1,1.4 2.1,1.4 11.3,0 22.5,0 33.8,0 1,0 1.6,-0.3 2.3,-1 4,-4.2 3.5,-2.5 2.2,-7.8 -0.6,-2.2 -0.6,-2.2 -2.8,-2.2 -7.7,0.1 -15.4,0.1 -23.1,0.1 z"
   id="path50"
   inkscape:connector-curvature="0"
   style="fill:#ffffff" />
	<path
   d="m 975.2,666.9 c 5.7,0 11.3,0 17,0 0.6,0 1.1,0 1.7,0 0.8,0 1.1,-0.4 0.9,-1.2 -0.3,-1.3 -0.7,-2.6 -1,-3.9 -0.3,-1.1 -0.4,-2.4 -1,-3.1 -0.8,-1 -2.3,-0.3 -3.4,-0.4 -0.1,0 -0.2,0 -0.2,0 -1.2,0 -1.8,-0.6 -1.8,-1.8 0,-0.4 0,-0.8 0,-1.2 -0.1,-1.9 -0.1,-1.9 -2,-1.9 -6.2,0 -12.5,0 -18.7,0 -2.8,0 -2.8,0 -3,2.9 0,0.1 0,0.2 0,0.2 0,1.2 -0.6,1.8 -1.7,1.8 -1,0 -1.9,0 -2.9,0 -0.7,0 -1.2,0.3 -1.4,1 -0.6,2.2 -1.1,4.5 -1.7,6.7 -0.2,0.6 0.1,0.9 0.7,1 0.6,0.1 1.3,0 1.9,0.1 5.4,-0.2 11,-0.2 16.6,-0.2 z"
   id="path52"
   inkscape:connector-curvature="0"
   style="fill:#ffffff" />
	<path
   d="m 909.5,699.7 c 0,0 0,0 0,0 1.3,0 2.6,0 3.8,0 1.1,0 1.2,-0.5 0.9,-1.3 -0.7,-1.6 -1.3,-3.2 -2,-4.9 -0.4,-1 -0.3,-1.8 0.7,-2.2 1,-0.5 1.7,0.1 2.1,1 0.6,1.3 1.1,2.6 1.7,4 1,2.4 1.9,4.8 3,7.1 1.5,3 4.9,4.2 8,3 2.8,-1.1 4.7,-4.4 3.7,-7.2 -1.2,-3.8 -2.7,-7.6 -4.7,-11 -3.1,-5.2 -10,-7.4 -15.5,-5.1 -5.6,2.4 -8.9,8.7 -7.5,14.5 0.5,2.1 0.5,2.1 2.7,2.1 1,0 2,0 3.1,0 z"
   id="path54"
   inkscape:connector-curvature="0"
   style="fill:#fae0d6" />
	<path
   d="m 947.5,695.7 c 0,-0.5 0,-0.7 0,-0.8 0.4,-3.8 -2.7,-6.6 -5.9,-6.8 -3.5,-0.2 -6.2,2.3 -6.8,6 -0.6,3.9 0,8 -1.3,11.8 -0.2,0.5 -0.1,1.1 -0.1,1.7 0,3.4 2.4,6.2 5.7,6.6 3.4,0.4 6.5,-1.9 6.9,-5.5 0.6,-4.5 1,-8.9 1.5,-13 z"
   id="path56"
   inkscape:connector-curvature="0"
   style="fill:#fae0d6" />
	<path
   d="m 989.6,683.2 c 0.9,-0.1 2,-0.2 2.9,-0.7 1.1,-0.7 1.5,-1.5 1.1,-2.3 -0.4,-0.9 -1.2,-1.1 -2.4,-0.5 -1.3,0.7 -2.4,0.5 -3.6,-0.3 -2.5,-1.8 -4.8,-1.6 -7.3,0.2 -2.2,1.6 -2.9,1.6 -5.1,-0.1 -0.2,-0.1 -0.4,-0.3 -0.6,-0.4 -2.8,-2 -5.4,-2 -8.2,0 -0.7,0.5 -1.4,1.1 -2.1,1.6 -1,0.7 -2.1,0.7 -3.2,0.4 -1.2,-0.3 -2.1,-1.4 -2.1,-2.6 0,-1.1 0.7,-2.1 1.9,-2.5 0.5,-0.2 1.1,-0.2 1.6,-0.3 0.9,-0.2 1.6,-0.6 1.5,-1.6 -0.1,-1 -0.8,-1.5 -1.8,-1.5 -2.5,-0.1 -5.4,1.8 -6.1,4.2 -0.8,2.6 0.3,5.5 2.7,6.8 2.3,1.3 4.7,1.3 7,-0.1 0.8,-0.5 1.5,-1.1 2.3,-1.7 1.8,-1.3 2.7,-1.3 4.6,-0.1 0.7,0.4 1.3,1 2,1.4 1.3,0.8 2.8,1.2 4.3,0.7 1,-0.3 2,-0.7 2.8,-1.4 1.4,-1.2 2.8,-1.4 4.3,-0.2 1,0.7 2.1,1 3.5,1 z"
   id="path58"
   inkscape:connector-curvature="0"
   style="fill:#ffffff" />
	<path
   d="m 958.6,702.2 c 0.4,-4.1 -2.9,-6.9 -6,-7 -1.7,-0.1 -2.1,0.2 -2.2,2 -0.2,2 -0.3,4 -0.6,5.9 -0.4,2.7 -0.3,5.4 -1.2,8 -0.5,1.4 -0.3,1.6 1.1,2 3.6,1.2 7.6,-1.1 8.2,-5.1 0.3,-1.9 0.4,-3.9 0.7,-5.8 z"
   id="path60"
   inkscape:connector-curvature="0"
   style="fill:#fae0d6" />
	<path
   d="m 1021.1,601.9 c -4.4,0 -8.8,0 -13.2,0 -2,0 -2,0 -2,2 0,0.2 0,0.5 0,0.7 -0.1,1.2 0.5,1.5 1.6,1.5 1.7,0 3.4,0 5,0 7,0 14.1,0 21.1,0 0.6,0 1.4,0.3 1.8,-0.2 0.8,-0.9 0.4,-2.1 0.3,-3.2 0,-0.9 -0.9,-0.8 -1.5,-0.8 -4.3,0 -8.7,0 -13.1,0 z"
   id="path62"
   inkscape:connector-curvature="0"
   style="fill:#151d38" />
	<path
   d="m 736.7,662.3 c 0,0 0,0 0,0 0,-1.2 0.2,-2.4 0,-3.6 -0.5,-4.1 -2.6,-6.9 -6.4,-8.5 -0.8,-0.3 -1.2,-0.3 -1,0.8 0.3,1.1 0.4,2.2 0.8,3.3 0.3,1 0.1,2.3 1,3.1 0.8,0.7 1,1.5 0.8,2.3 -0.5,3.1 0.9,5.6 2.6,7.9 0.6,0.8 1,0.9 1.6,0.1 0.4,-0.5 0.5,-1.1 0.5,-1.8 0.1,-1.2 0.1,-2.4 0.1,-3.6 z"
   id="path64"
   inkscape:connector-curvature="0"
   style="fill:#fae0d6" />
	<path
   d="m 738.7,690.4 c 0.1,-3.3 -0.5,-4.4 -3.4,-5.9 -1.1,-0.6 -2.2,-1.7 -3.1,-1.5 -0.8,0.2 -1.2,1.9 -1.9,2.8 -1.5,2.1 -1.5,4.3 -0.2,6.5 1.7,2.9 4,5.4 6.2,7.9 0.7,0.8 1.1,0.6 1.2,-0.3 0.5,-2.9 1.2,-5.8 1.2,-9.5 z"
   id="path66"
   inkscape:connector-curvature="0"
   style="fill:#ccd6da" />
	<path
   d="m 731.4,678.2 c 0,-0.3 -0.1,-0.6 -0.5,-0.6 -0.2,0 -0.5,0.1 -0.4,0.4 0,0.3 0.2,0.6 0.5,0.6 0.2,0.1 0.3,-0.1 0.4,-0.4 z"
   id="path68"
   inkscape:connector-curvature="0"
   style="fill:#151d38" />
	<path
   d="m 1155.7,702.1 c -0.8,0.5 -1.7,0.4 -2.5,0.4 -16.3,0 -32.6,0 -48.9,0 -0.5,0 -1,0 -1.4,0 -0.9,-0.1 -1.3,-0.5 -1.3,-1.4 0,-0.9 0.5,-1.3 1.3,-1.4 0.6,-0.1 1.1,-0.1 1.7,-0.1 16.2,0 32.3,0 48.5,0 1,0 1.9,0 2.8,0.5 -0.2,0.8 -0.2,1.4 -0.2,2 z"
   id="path70"
   inkscape:connector-curvature="0"
   style="fill:#151d38" />
	<path
   d="m 1050.7,679.1 c 0,-6.8 0,-13.6 0,-20.4 0,-2.7 0.3,-3 3,-3.1 0.5,0 1,0 1.4,0 0.6,0 0.8,-0.4 0.8,-1 0,-0.5 0,-0.9 -0.6,-1.1 -2.2,-0.9 -2.2,-0.9 -2.2,-3.3 0,-3 0,-6.1 0,-9.1 0,-2.2 0.2,-2.4 2.5,-2.4 5.7,0 11.4,0 17,0 2.2,0 2.4,0.2 2.4,2.5 0,3.3 0,6.6 0,9.8 0,1.9 0,2 -1.9,2.4 -0.8,0.2 -1,0.6 -1,1.3 0,0.8 0.6,0.8 1.2,0.9 0.1,0 0.2,0 0.2,0 3.8,0.3 3.8,0.3 3.8,3.9 0,13.1 0,26.2 0,39.3 0,0.6 0,1.3 0,1.9 0,1 -0.6,1.6 -1.6,1.7 -0.4,0 -0.8,0 -1.2,0 -7,0 -13.9,0 -20.9,0 -2.7,0 -3,-0.3 -3,-3.1 0.1,-6.6 0.1,-13.4 0.1,-20.2 z m 8.1,-0.5 c 0,0 0,0 0,0 0,2.7 0,5.4 0,8.2 0,1 0.4,1.5 1.4,1.4 2.4,0 4.8,0 7.2,0 1.1,0 1.6,-0.3 1.6,-1.5 0,-5.4 0,-10.7 0,-16.1 0,-1.1 -0.3,-1.6 -1.5,-1.6 -2.3,0.1 -4.6,0 -7,0 -1.6,0 -1.7,0.1 -1.7,1.8 0,2.7 0,5.2 0,7.8 z m 5.2,-28 c 0,0 0,0 0,0 2.2,0 4.5,0 6.7,0 1.1,0 1.6,-0.4 1.5,-1.6 -0.1,-2 0,-4 0,-6 0,-1 -0.3,-1.5 -1.4,-1.4 -4.5,0 -8.9,0 -13.4,0 -1,0 -1.4,0.4 -1.4,1.4 0,2 0,4 0,6 0,1.3 0.6,1.6 1.8,1.6 2.1,0 4.2,0 6.2,0 z"
   id="path72"
   inkscape:connector-curvature="0"
   style="fill:#151d38" />
	<path
   d="m 271.6,702.6 c -8,0 -16,0 -24,0 -0.6,0 -1.3,0 -1.9,0 -0.8,-0.1 -1.4,-0.6 -1.4,-1.4 0,-0.8 0.6,-1.3 1.4,-1.4 0.6,-0.1 1.3,-0.1 1.9,-0.1 16,0 32,0 48,0 0.6,0 1.3,0 1.9,0.1 0.8,0.1 1.3,0.6 1.3,1.4 0,0.8 -0.5,1.3 -1.3,1.4 -0.6,0 -1.3,0 -1.9,0 -8,0 -16,0 -24,0 z"
   id="path74"
   inkscape:connector-curvature="0"
   style="fill:#151d38" />
	<path
   d="m 649.6,393.9 c 5.4,0 9.4,4 9.4,9.3 0,5.1 -4.1,9.3 -9.2,9.3 -5.2,0.1 -9.4,-4.3 -9.4,-9.5 -0.1,-5.1 4,-9.1 9.2,-9.1 z"
   id="path76"
   inkscape:connector-curvature="0"
   style="fill:#151d38" />
	<path
   d="m 764.2,357 c 5.1,0 9.3,4.2 9.3,9.3 0,5.2 -4.1,9.4 -9.4,9.4 -5.2,0 -9.4,-4.2 -9.3,-9.5 0.1,-5.1 4.3,-9.2 9.4,-9.2 z"
   id="path78"
   inkscape:connector-curvature="0"
   style="fill:#151d38" />
	<path
   d="m 706.5,418.7 c -11.1,-0.1 -19.8,-3.8 -27.2,-10.4 -0.8,-0.7 -1.6,-1.5 -2.4,-2.3 -0.6,-0.6 -0.8,-1.4 -0.2,-2.1 0.8,-0.8 1.6,-0.6 2.3,0 0.8,0.8 1.6,1.6 2.4,2.3 7,6.1 15,9.8 24.4,9.4 13.3,-0.5 22.9,-7 28.9,-18.9 1.7,-3.3 2.7,-6.8 3.3,-10.5 0.1,-0.5 0.2,-0.9 0.3,-1.4 0.2,-0.8 0.8,-1.1 1.7,-1 0.9,0.1 1.3,0.7 1.2,1.5 0,0.7 -0.2,1.4 -0.3,2.1 -2.7,13.4 -9.8,23.4 -22.7,28.8 -3.9,1.7 -8.4,2.5 -11.7,2.5 z"
   id="path80"
   inkscape:connector-curvature="0"
   style="fill:#151d38" />
	<path
   d="m 703.4,393.4 c -0.2,-0.1 -0.7,-0.2 -1.1,-0.3 -7.9,-2.4 -15.8,-4.7 -23.7,-7.1 -0.5,-0.1 -0.9,-0.2 -1.4,-0.4 -1.1,-0.5 -1.3,-1.4 -0.5,-2.4 0.4,-0.6 0.9,-1.1 1.4,-1.6 5.6,-5.6 11.1,-11.2 16.7,-16.9 0.4,-0.5 0.9,-0.9 1.4,-1.3 0.6,-0.3 1.2,-0.3 1.8,0.2 0.5,0.5 0.6,1.2 0.2,1.8 -0.3,0.5 -0.8,1 -1.2,1.4 -4.8,4.8 -9.6,9.7 -14.3,14.5 -0.3,0.3 -0.6,0.6 -0.8,0.9 -1.1,1.2 -1.1,1.2 0.6,1.7 1,0.3 2,0.6 3,0.9 5.9,1.8 11.8,3.5 17.7,5.3 0.5,0.1 0.9,0.3 1.4,0.5 0.9,0.3 1.3,1 1,1.9 -0.5,0.8 -1.2,1 -2.2,0.9 z"
   id="path82"
   inkscape:connector-curvature="0"
   style="fill:#151d38" />
	<path
   d="m 845.3,369 c 0,10.6 -9.4,18.3 -19.6,16.3 -0.4,-0.1 -0.8,-0.1 -1.2,-0.3 -0.8,-0.3 -1.1,-0.9 -0.9,-1.7 0.2,-0.8 0.8,-1.1 1.6,-1 0.7,0.1 1.4,0.2 2.1,0.3 7.1,0.8 13.7,-4.3 14.8,-11.4 1.1,-7 -3.8,-13.9 -10.8,-15.2 -1.3,-0.2 -2.5,-0.4 -3.8,-0.2 -1,0.1 -2,0.2 -2.2,-1.2 -0.2,-1.1 0.5,-1.6 2,-1.8 6.6,-0.8 13.7,3.3 16.5,9.6 1,2.2 1.6,4.5 1.5,6.6 z"
   id="path84"
   inkscape:connector-curvature="0"
   style="fill:#151d38" />
	<path
   d="m 780.5,339.4 c 0,0.5 -0.7,1.2 -1.6,1.1 -0.5,-0.1 -1.1,-0.4 -1.5,-0.6 -13.7,-7.2 -29.7,-2.1 -37.3,10 -0.3,0.4 -0.5,0.9 -0.8,1.2 -0.5,0.5 -1.2,0.5 -1.8,0.1 -0.6,-0.4 -0.8,-1 -0.6,-1.7 0.2,-0.6 0.5,-1.2 0.9,-1.7 8.6,-13.4 26.5,-18.2 40.6,-10.8 1,0.4 2.1,0.7 2.1,2.4 z"
   id="path86"
   inkscape:connector-curvature="0"
   style="fill:#151d38" />
	<path
   d="m 647,370.3 c 7.5,-0.1 12.3,1.1 16.8,3.4 0.5,0.3 1,0.5 1.5,0.8 0.6,0.5 0.9,1.1 0.6,1.9 -0.4,0.9 -1.2,1 -2,0.7 -0.6,-0.2 -1.1,-0.6 -1.7,-0.8 -12.8,-6.3 -28,-2.2 -36,9.6 -0.4,0.6 -0.8,1.2 -1.2,1.8 -0.5,0.5 -1.1,0.6 -1.7,0.3 -0.7,-0.4 -0.8,-1 -0.7,-1.6 0.1,-0.7 0.6,-1.3 1,-1.9 6.1,-9.3 14.8,-13.9 23.4,-14.2 z"
   id="path88"
   inkscape:connector-curvature="0"
   style="fill:#151d38" />
	<path
   d="m 714.8,432.4 c -2.9,0 -5.7,-0.7 -8.3,-1.9 -0.5,-0.2 -1,-0.5 -1.4,-0.9 -0.4,-0.4 -0.6,-1 -0.3,-1.5 0.3,-0.6 0.8,-1 1.5,-0.9 0.5,0.1 1,0.4 1.5,0.6 7.8,3.4 16.3,0.9 21,-6.2 0.3,-0.5 0.6,-1 1,-1.4 0.5,-0.5 1.1,-0.5 1.8,-0.2 0.6,0.4 0.9,1 0.6,1.6 -0.2,0.5 -0.5,1 -0.8,1.5 -3.5,5.9 -9.8,9.3 -16.6,9.3 z"
   id="path90"
   inkscape:connector-curvature="0"
   style="fill:#151d38" />
	<path
   d="m 809.7,717.9 c 1,-0.1 2.1,-0.2 3.1,-0.3 1.3,0 2.1,0.5 2.1,1.5 0,1.1 -0.8,1.5 -1.7,1.6 -2.7,0.2 -5.4,0.4 -8.1,0.6 -11.3,1 -22.3,3.3 -33.1,6.6 -0.5,0.2 -1.1,0.3 -1.6,0.5 -1.3,0.3 -2.1,0 -2.3,-0.9 -0.3,-0.9 0.2,-1.5 1.5,-2 0.3,-0.1 0.6,-0.2 0.9,-0.3 12.7,-4.1 25.8,-6.5 39.2,-7.3 z"
   id="path92"
   inkscape:connector-curvature="0"
   style="fill:#151d38" />
	<path
   d="m 818.4,696 c 3.4,-0.1 7.5,0.3 11.6,0.5 0.6,0 1.1,0.1 1.7,0.2 0.8,0.2 1.2,0.7 1.2,1.5 -0.1,0.8 -0.6,1.3 -1.4,1.4 -0.3,0 -0.6,0 -1,-0.1 -10.5,-0.8 -21.1,-0.7 -31.6,0.6 -0.6,0.1 -1.3,0.1 -1.9,0.1 -0.8,0 -1.3,-0.5 -1.4,-1.3 -0.1,-0.8 0.4,-1.4 1.2,-1.5 0.9,-0.2 1.7,-0.3 2.6,-0.4 6,-0.6 12.1,-1 19,-1 z"
   id="path94"
   inkscape:connector-curvature="0"
   style="fill:#151d38" />
	<path
   d="m 785.1,746.7 c 0,1 -0.6,1.4 -1.5,1.6 -2.6,0.7 -5.2,1.4 -7.8,2.2 -3.2,1 -6.3,2.1 -9.5,3.2 -0.5,0.2 -0.9,0.3 -1.3,0.5 -0.8,0.3 -1.5,0 -1.8,-0.8 -0.4,-0.8 -0.1,-1.6 0.7,-2 0.3,-0.2 0.7,-0.3 1.1,-0.5 5.7,-2.2 11.5,-3.9 17.3,-5.5 0.5,-0.1 0.9,-0.2 1.4,-0.2 0.9,0.2 1.4,0.7 1.4,1.5 z"
   id="path96"
   inkscape:connector-curvature="0"
   style="fill:#151d38" />
	<path
   d="m 772.9,705.2 c -0.9,0 -1.5,-0.2 -1.7,-1.1 -0.2,-0.8 0.1,-1.4 0.9,-1.7 0.5,-0.2 1.1,-0.3 1.6,-0.5 4.1,-1.1 8.2,-2 12.3,-2.8 0.5,-0.1 1,-0.2 1.4,-0.1 0.6,0.1 1,0.4 1.1,1.1 0.1,0.7 0,1.3 -0.7,1.6 -0.4,0.2 -0.9,0.3 -1.4,0.4 -4.2,0.8 -8.4,1.8 -12.6,2.9 -0.2,0 -0.6,0.1 -0.9,0.2 z"
   id="path98"
   inkscape:connector-curvature="0"
   style="fill:#151d38" />
	<path
   d="m 719.9,723.8 c -0.5,-0.1 -1.1,-0.2 -1.7,-0.4 -9.9,-2.1 -19.8,-3.4 -29.9,-3.7 -15,-0.5 -29.8,1.1 -44.4,4.7 -0.5,0.1 -1.1,0.3 -1.6,0.3 -0.8,0.1 -1.4,-0.3 -1.6,-1.1 -0.2,-0.8 0.2,-1.4 0.9,-1.7 0.5,-0.2 1.1,-0.3 1.6,-0.5 11.3,-2.7 22.7,-4.3 34.4,-4.7 13.7,-0.5 27.3,0.8 40.7,3.7 0.8,0.2 1.6,0.3 2.3,0.6 0.9,0.3 1.4,0.9 1.1,1.8 -0.2,0.8 -0.9,1.1 -1.8,1 z"
   id="path100"
   inkscape:connector-curvature="0"
   style="fill:#151d38" />
	<path
   d="m 710.4,746.5 c -1.6,-0.3 -3.3,-0.6 -5,-0.9 -7.6,-1.3 -15.2,-2.1 -22.9,-2.3 -8.1,-0.3 -16.1,0.1 -24.1,1.1 -1.1,0.1 -2.2,0.3 -3.3,0.4 -1.3,0.1 -2.1,-0.4 -2.2,-1.3 -0.1,-1.1 0.7,-1.5 1.7,-1.7 1.8,-0.2 3.6,-0.6 5.5,-0.7 10.9,-1.1 21.8,-1.3 32.8,-0.2 5.7,0.6 11.4,1.3 17.1,2.5 0.5,0.1 1,0.2 1.4,0.3 0.8,0.3 1.2,0.9 1,1.7 -0.4,0.8 -1,1.1 -2,1.1 z"
   id="path102"
   inkscape:connector-curvature="0"
   style="fill:#151d38" />
	<path
   d="m 644.4,743.5 c 0.8,0 1.4,0.4 1.6,1.2 0.2,0.8 -0.2,1.4 -1,1.7 -0.4,0.1 -0.8,0.2 -1.1,0.3 -7.4,1.6 -14.7,3.6 -21.8,6.2 -0.4,0.2 -0.9,0.4 -1.4,0.4 -0.7,0.1 -1.3,-0.3 -1.5,-1 -0.2,-0.6 -0.1,-1.3 0.5,-1.7 0.4,-0.3 0.9,-0.4 1.3,-0.6 7.3,-2.6 14.7,-4.8 22.3,-6.3 0.3,0 0.7,-0.1 1.1,-0.2 z"
   id="path104"
   inkscape:connector-curvature="0"
   style="fill:#151d38" />
	<path
   d="m 659,695.9 c 1.2,0 1.9,0.3 2,1.3 0.1,1 -0.5,1.5 -1.4,1.6 -2.1,0.4 -4.2,0.8 -6.4,1.2 -5.4,1 -10.7,2.4 -16,4 -0.3,0.1 -0.6,0.2 -0.9,0.3 -1.3,0.3 -2.1,0 -2.3,-0.9 -0.3,-1.3 0.6,-1.7 1.5,-2 6,-1.9 12.1,-3.4 18.3,-4.6 1.9,-0.3 3.7,-0.6 5.2,-0.9 z"
   id="path106"
   inkscape:connector-curvature="0"
   style="fill:#151d38" />
	<path
   d="m 718.6,745.3 c 0.2,0.1 0.6,0.1 1,0.2 5.7,1.5 11.4,3.2 16.9,5.3 0.4,0.1 0.7,0.3 1.1,0.4 1,0.4 1.4,1.1 1,2.1 -0.4,1 -1.2,1 -2.2,0.7 -6,-2.3 -12.1,-4.2 -18.2,-5.8 -0.9,-0.2 -1.7,-0.7 -1.5,-1.8 0.1,-0.8 0.8,-1.2 1.9,-1.1 z"
   id="path108"
   inkscape:connector-curvature="0"
   style="fill:#151d38" />
	<path
   d="m 420.6,682.2 c 13.7,0 27.3,0 41,0 0.7,0 1.4,0 2.2,0.1 0.7,0.1 1.1,0.5 1.2,1.3 0.1,0.7 -0.3,1.2 -1,1.5 -0.4,0.1 -0.8,0.2 -1.2,0.2 -0.6,0 -1.3,0 -1.9,0 -27,0 -54,0 -81,0 -0.9,0 -1.8,0 -2.6,-0.1 -0.8,-0.1 -1.2,-0.7 -1.2,-1.5 0,-0.9 0.6,-1.3 1.4,-1.3 0.7,0 1.4,0 2.2,0 13.6,-0.2 27.3,-0.2 40.9,-0.2 z"
   id="path110"
   inkscape:connector-curvature="0"
   style="fill:#151d38" />
	<path
   d="m 434.3,666.2 c -8.7,0 -17.4,0 -26.2,0 -0.6,0 -1.3,0 -1.9,0 -0.9,-0.1 -1.3,-0.6 -1.3,-1.4 0,-0.9 0.5,-1.3 1.3,-1.4 0.5,-0.1 1,-0.1 1.4,-0.1 17.7,0 35.3,0 53,0 0.1,0 0.2,0 0.2,0 1.7,0 2.5,0.5 2.5,1.5 0,1 -0.6,1.4 -2.5,1.4 -8.8,0 -17.6,0 -26.5,0 z"
   id="path112"
   inkscape:connector-curvature="0"
   style="fill:#151d38" />
	<path
   d="m 364.4,673.4 c 5.3,0 10.7,0 16,0 2,0 2.8,0.4 2.8,1.4 0,1.1 -0.8,1.6 -2.7,1.6 -9.2,0 -18.4,0 -27.5,0 -1.7,0 -3.4,0 -5,0 -0.6,0 -1.1,0 -1.6,-0.3 -0.5,-0.3 -0.8,-0.8 -0.7,-1.4 0.1,-0.6 0.5,-1.1 1.1,-1.2 0.6,-0.1 1.3,-0.1 1.9,-0.1 5.2,0 10.5,0 15.7,0 z"
   id="path114"
   inkscape:connector-curvature="0"
   style="fill:#151d38" />
	<path
   d="m 527.7,661.3 c 0,1.1 -1.1,1.8 -2.1,1.4 -0.6,-0.3 -1,-0.7 -1.5,-1.1 -16.4,-14.4 -32.8,-28.7 -49.2,-43.1 -0.1,-0.1 -0.1,-0.1 -0.2,-0.2 -1.2,-1.1 -1.5,-2.1 -0.8,-2.8 0.7,-0.7 1.4,-0.7 2.7,0.4 2.6,2.2 5.2,4.5 7.8,6.8 13.9,12.1 27.8,24.3 41.6,36.4 0.8,0.6 1.6,1.1 1.7,2.2 z"
   id="path116"
   inkscape:connector-curvature="0"
   style="fill:#151d38" />
	<path
   d="m 477.3,605.5 c 1,0 1.6,0.7 2.2,1.2 5.6,4.9 11.2,9.8 16.8,14.7 2.2,1.9 4.5,3.9 6.7,5.8 0.4,0.4 0.8,0.7 1.2,1.1 0.7,0.7 1,1.5 0.3,2.3 -0.7,0.8 -1.6,0.5 -2.3,-0.1 -0.3,-0.3 -0.6,-0.5 -0.9,-0.8 -7.9,-6.9 -15.9,-13.9 -23.8,-20.8 -0.5,-0.4 -1,-0.8 -1.3,-1.4 -0.5,-0.8 0.1,-1.9 1.1,-2 z"
   id="path118"
   inkscape:connector-curvature="0"
   style="fill:#151d38" />
	<path
   d="m 560.7,665.1 c 0.1,1 -1,1.8 -1.9,1.4 -0.6,-0.2 -1.1,-0.7 -1.5,-1.1 -6,-5.2 -11.9,-10.4 -17.9,-15.6 -0.4,-0.4 -0.9,-0.7 -1.2,-1.2 -0.4,-0.6 -0.4,-1.3 0,-1.8 0.4,-0.6 1.1,-0.6 1.7,-0.3 0.4,0.2 0.8,0.5 1.2,0.8 6.1,5.4 12.3,10.7 18.4,16.1 0.6,0.4 1.2,0.9 1.2,1.7 z"
   id="path120"
   inkscape:connector-curvature="0"
   style="fill:#151d38" />
	<path
   d="m 755.2,199.1 c 2.1,-0.1 3.7,1.4 3.7,3.5 0.1,2.1 -1.4,3.7 -3.5,3.7 -2.1,0 -3.7,-1.5 -3.8,-3.5 0,-2 1.6,-3.7 3.6,-3.7 z"
   id="path122"
   inkscape:connector-curvature="0"
   style="fill:#151d38" />
	<path
   d="m 737.2,693.5 c 0,1.5 -0.4,2.2 -1.4,2.5 -1,0.2 -1.9,0 -2.2,-1 -0.9,-2.5 -1.7,-5.2 -2.2,-7.8 -0.2,-1 0.4,-1.7 1.4,-1.9 0.9,-0.2 1.9,-0.1 2.2,0.9 0.9,2.5 1.6,5.2 2.2,7.3 z"
   id="path124"
   inkscape:connector-curvature="0"
   style="fill:#151d38" />
</g>
</svg>