<?xml version="1.0" ?><svg id="Layer_1" style="enable-background:new -495 497 32 32;" version="1.1" viewBox="-495 497 32 32" xml:space="preserve" xmlns="http://www.w3.org/2000/svg" xmlns:xlink="http://www.w3.org/1999/xlink"><style type="text/css">
	.st0{fill:none;stroke:#000000;stroke-width:2;stroke-miterlimit:10;}
</style><path class="st0" d="M-483,518v6.3c0,0.9-0.7,1.7-1.6,1.7l0,0c-0.8,0-1.5-0.6-1.6-1.3l-1.4-6.7" id="XMLID_121_"/><g id="XMLID_68_"><path class="st0" d="M-480,506h-9c-2.8,0-5,2.2-5,5v2c0,2.8,2.2,5,5,5h9l12,4v-10.3V502L-480,506z" id="XMLID_70_"/><line class="st0" id="XMLID_69_" x1="-480" x2="-480" y1="518" y2="506"/></g><path class="st0" d="M-468,502c0-1.1,0.9-2,2-2l0,0c1.1,0,2,0.9,2,2v20c0,1.1-0.9,2-2,2l0,0c-1.1,0-2-0.9-2-2" id="XMLID_387_"/></svg>