<?xml version="1.0" ?><!DOCTYPE svg  PUBLIC '-//W3C//DTD SVG 1.1//EN'  'http://www.w3.org/Graphics/SVG/1.1/DTD/svg11.dtd'><svg enable-background="new 0 0 176.221 254.107" height="254.107" id="Layer_1" overflow="visible" version="1.1" viewBox="0 0 176.221 254.107" width="176.221" xml:space="preserve" xmlns="http://www.w3.org/2000/svg" xmlns:xlink="http://www.w3.org/1999/xlink"><g><path d="M6,61.448v163.854c0,12.546,12.272,22.808,27.271,22.808   c15,0,27.273-10.262,27.273-22.808V61.448c0-12.545-12.274-22.806-27.273-22.806C18.274,38.642,6,48.903,6,61.448z" fill="#E6E6E6" stroke="#4F4F4F" stroke-width="8"/><path d="M6,61.448v163.854   c0,12.546,12.272,22.808,27.271,22.808c15,0,27.273-10.262,27.273-22.808V61.448c0-12.545-12.274-22.806-27.273-22.806   C18.274,38.642,6,48.903,6,61.448z" fill="#E6E6E6" stroke="#4F4F4F" stroke-linecap="round" stroke-linejoin="round" stroke-width="8"/></g><g><path d="M61.469,61.448v163.854c0,12.546,12.272,22.808,27.273,22.808   c14.998,0,27.271-10.262,27.271-22.808V61.448c0-12.545-12.271-22.806-27.271-22.806S61.469,48.903,61.469,61.448z" fill="#FF8A8A" stroke="#4F4F4F" stroke-width="8"/><path d="M61.469,61.448v163.854   c0,12.546,12.272,22.808,27.273,22.808c14.998,0,27.271-10.262,27.271-22.808V61.448c0-12.545-12.271-22.806-27.271-22.806   S61.469,48.903,61.469,61.448z" fill="#FF8A8A" stroke="#4F4F4F" stroke-linecap="round" stroke-linejoin="round" stroke-width="8"/></g><g><path d="M115.677,61.448v163.854c0,12.546,12.273,22.808,27.272,22.808   s27.271-10.262,27.271-22.808V61.448c0-12.545-12.271-22.806-27.271-22.806S115.677,48.903,115.677,61.448z" fill="#B8CFFF" stroke="#4F4F4F" stroke-width="8"/><path d="M115.677,61.448   v163.854c0,12.546,12.273,22.808,27.272,22.808s27.271-10.262,27.271-22.808V61.448c0-12.545-12.271-22.806-27.271-22.806   S115.677,48.903,115.677,61.448z" fill="#B8CFFF" stroke="#4F4F4F" stroke-linecap="round" stroke-linejoin="round" stroke-width="8"/></g><g><path d="M6,0v56.123c0,12.543,12.272,22.807,27.271,22.807   c15,0,27.273-10.264,27.273-22.807V0" fill="#FFFFFF" stroke="#4F4F4F" stroke-width="8"/><path d="M6,0v56.123   c0,12.543,12.272,22.807,27.271,22.807c15,0,27.273-10.264,27.273-22.807V0" fill="#FFFFFF" stroke="#4F4F4F" stroke-linejoin="round" stroke-width="8"/></g><g><path d="M61.469,0v56.123c0,12.543,12.272,22.807,27.273,22.807   c14.998,0,27.271-10.264,27.271-22.807V0" fill="#FFFFFF" stroke="#4F4F4F" stroke-width="8"/><path d="M61.469,0v56.123   c0,12.543,12.272,22.807,27.273,22.807c14.998,0,27.271-10.264,27.271-22.807V0" fill="#FFFFFF" stroke="#4F4F4F" stroke-linejoin="round" stroke-width="8"/></g><g><path d="M115.677,0v56.123c0,12.543,12.273,22.807,27.272,22.807   s27.271-10.264,27.271-22.807V0" fill="#FFFFFF" stroke="#4F4F4F" stroke-width="8"/><path d="M115.677,0v56.123   c0,12.543,12.273,22.807,27.272,22.807s27.271-10.264,27.271-22.807V0" fill="#FFFFFF" stroke="#4F4F4F" stroke-linejoin="round" stroke-width="8"/></g></svg>