<?xml version="1.0" ?><!DOCTYPE svg  PUBLIC '-//W3C//DTD SVG 1.1//EN'  'http://www.w3.org/Graphics/SVG/1.1/DTD/svg11.dtd'><svg enable-background="new 0 0 16 16" height="16px" id="Layer_1" version="1.1" viewBox="0 0 16 16" width="16px" xml:space="preserve" xmlns="http://www.w3.org/2000/svg" xmlns:xlink="http://www.w3.org/1999/xlink"><path clip-rule="evenodd" d="M13.5,14H10v1c0,0.552-0.448,1-1,1H2c-0.552,0-1-0.448-1-1V6c0-0.552,0.448-1,1-1  h2V3.5C4,2.672,4.672,2,5.5,2h0.602C6.312,1.42,6.85,1,7.5,1h0.602C8.312,0.42,8.85,0,9.5,0c0.65,0,1.188,0.42,1.398,1H11.5  c0.65,0,1.188,0.42,1.398,1H13.5C14.328,2,15,2.672,15,3.5v9C15,13.328,14.328,14,13.5,14L13.5,14z M2,6v9h7V9H7  C6.448,9,6,8.552,6,8V6H2L2,6z M9,8L7,6v2H9L9,8z M9.5,1C9.225,1,9,1.224,9,1.5S9.225,2,9.5,2S10,1.776,10,1.5S9.775,1,9.5,1L9.5,1z   M14,3.5C14,3.224,13.775,3,13.5,3H13v0.5C13,3.776,12.775,4,12.5,4h-1h-4h-1C6.224,4,6,3.776,6,3.5V3H5.5C5.224,3,5,3.224,5,3.5V5  h1h0.422h0.25C7.154,5,7.59,5.19,7.918,5.496l1.561,1.56C9.8,7.388,10,7.84,10,8.34v0.238V9v4h3.5c0.275,0,0.5-0.224,0.5-0.5V3.5  L14,3.5z" fill-rule="evenodd"/></svg>