<?xml version="1.0" ?><!DOCTYPE svg  PUBLIC '-//W3C//DTD SVG 1.1//EN'  'http://www.w3.org/Graphics/SVG/1.1/DTD/svg11.dtd'><svg enable-background="new 0 0 245.748 253.73" height="253.73" id="Layer_1" overflow="visible" version="1.1" viewBox="0 0 245.748 253.73" width="245.748" xml:space="preserve" xmlns="http://www.w3.org/2000/svg" xmlns:xlink="http://www.w3.org/1999/xlink"><path d="M185.39,224.405c65.811-54.866,13.713-115.378-32.701-151.414C104.841,35.839,128.101,6,128.101,6  C82.31,39.071,94.605,126.835,94.605,126.835c-6.36-46.215-57.238-57.237-57.238-57.237s35.615,8.479,5.937,69.532  c-29.678,61.055,19.503,89.036,19.503,89.036C74.198,239.556,140.431,261.889,185.39,224.405z" fill="#FFA6A6"/><path d="M220.974,166.626c-0.674-38.803-36.005-74.27-65.523-97.188c-43.43-33.723-24.604-59.609-23.801-60.67  c1.377-1.768,1.244-4.277-0.311-5.891c-1.553-1.612-4.057-1.837-5.874-0.524C94.834,24.475,88.876,69.036,88.604,98.592  c-5.568-8.301-13.158-15.551-22.611-21.518C51.971,68.224,38.87,65.319,38.32,65.199c-2.396-0.52-4.745,0.98-5.311,3.365  c-0.566,2.385,0.903,4.789,3.277,5.4c0.315,0.081,7.765,2.09,11.775,10.762c3.71,8.024,5.195,23.637-8.804,52.436  c-8.942,18.397-16.412,45.763-1.211,71.659c8.175,13.928,19.432,21.362,22.012,22.944c8.227,7.665,34.398,17.958,63.751,17.959  c0.002,0,0.002,0,0.006,0c25.011,0,47.303-7.562,64.457-21.863C210.356,209.448,221.36,188.845,220.974,166.626z M182.508,220.949  c-19.604,16.345-42.737,19.775-58.694,19.775c0,0-0.002,0-0.004,0c-28.019-0.001-52.171-10.093-57.819-15.74  c-0.285-0.285-0.607-0.53-0.957-0.729c-0.112-0.063-11.34-6.556-19.225-19.988c-10.584-18.033-10.065-39.286,1.544-63.168  c12.144-24.983,15.298-44.814,9.39-58.984c13.75,7.577,29.998,21.383,33.37,45.111c0.095,4.141,1.485,41.881,20.534,60.932  c0.879,0.879,2.03,1.318,3.182,1.318c1.151,0,2.303-0.439,3.182-1.318c1.757-1.757,1.757-4.606,0-6.363  c-17.131-17.132-18.28-58.02-18.287-58.464c-0.002-0.107,0.354,3.235,0.345,3.13c-0.007-0.09,0.003-0.177-0.01-0.267  c-0.124-0.906-3.002-22.47-0.309-47.795c2.903-27.306,10.763-44.882,19.296-56.167c-0.173,2.495-0.128,5.196,0.232,8.081  c1.988,15.916,12.637,31.472,31.652,46.235c50.67,39.341,61.707,70.786,62.047,90.237  C212.312,186.142,202.397,204.367,182.508,220.949z" fill="#4F4F4F"/></svg>