<?xml version="1.0" ?><!DOCTYPE svg  PUBLIC '-//W3C//DTD SVG 1.1//EN'  'http://www.w3.org/Graphics/SVG/1.1/DTD/svg11.dtd'><svg enable-background="new 0 0 250 250" height="250" id="Layer_1" overflow="visible" version="1.1" viewBox="0 0 250 250" width="250" xml:space="preserve" xmlns="http://www.w3.org/2000/svg" xmlns:xlink="http://www.w3.org/1999/xlink"><path d="M138.307,227.175c65.157-43.637,91.225-106.94,94.141-158.964c0.436-7.786-0.018,0.601-0.438-16.257  c0-22.596-16.667-17.236-16.667-17.236c-8.894,3.641-17.735,5.667-28.095,5.667c-16.841,0-33.964-3.335-44.57-14.303  c-19.256-19.913-35.586-0.004-35.586-0.004c-12.666,8.957-28.676,14.306-46.094,14.306c-10.718,0-20.901-2.031-30.103-5.68  c0,0-14.636-4.488-14.636,16.131c0.176,16.955-0.462,9.167,0.026,16.959c3.365,53.628,31.98,117.774,93.102,159.378  C107.759,226.104,119.358,237.104,138.307,227.175z" fill="#89D9AE"/><g><path d="M115.451,153.48c-2.303,0-4.606-0.879-6.363-2.635l-25.904-25.905c-3.514-3.514-3.514-9.212,0-12.726   c3.514-3.513,9.212-3.514,12.726,0l19.541,19.541l42.945-42.943c3.517-3.513,9.213-3.514,12.727,0s3.514,9.212,0,12.726   l-49.308,49.307C120.057,152.604,117.754,153.48,115.451,153.48z" fill="#4F4F4F"/></g><path d="M122.736,235.859c-5.406,0-12.898-1.987-16.254-5.223c-29.177-19.943-52.476-45.677-69.257-76.494  C22.414,126.943,13.62,97.183,11.794,68.075c-0.228-3.637-0.23-4.152-0.143-5.416c0.065-0.942,0.2-2.904,0.108-11.778  c0-7.593,1.814-13.253,5.392-16.871c2.73-2.761,6.369-4.22,10.522-4.22c2.427,0,4.209,0.509,4.542,0.611l0.34,0.119  c8.975,3.559,18.545,5.363,28.444,5.363c15.8,0,30.68-4.556,43.066-13.179c1.932-2.137,9.772-9.974,20.827-9.974  c7.389,0,14.461,3.439,21.022,10.223c8.298,8.581,22.205,12.932,41.335,12.932c9.12,0,17.506-1.694,26.39-5.332l0.327-0.119  c0.245-0.079,2.483-0.771,5.444-0.771c4.49,0,8.408,1.544,11.331,4.466c3.819,3.817,5.761,9.795,5.77,17.768  c0.212,8.452,0.429,10.355,0.521,11.168c0.143,1.247,0.13,1.467-0.076,5.146l-0.015,0.252  c-1.719,30.637-14.523,107.797-96.131,162.451l-0.416,0.247C134.443,234.277,128.504,235.859,122.736,235.859z M109.244,227.456  l-2.324,3.479c0.304,0.199-1.432-2.617-0.247-2.617L109.244,227.456z M109.437,227.168l-1.019-2.873  c0.776-2.129,4.334-0.145,3.502-0.843c0.035,0.028,4.258,3.407,10.816,3.407c4.233,0,8.698-1.198,13.271-3.563  c78.065-52.393,90.308-126.073,91.947-155.339l0.015-0.251c0.176-3.135,0.176-3.135,0.119-3.623  c-0.124-1.091-0.355-3.122-0.576-12.019l-0.002-0.112c0-13.291-6.098-13.291-8.101-13.291c-1.248,0-2.252,0.227-2.599,0.315  c-9.914,4.029-19.315,5.907-29.563,5.907c-21.663,0-37.747-5.274-47.805-15.675c-4.801-4.963-9.695-7.479-14.552-7.479  c-8.21,0-14.272,7.144-14.333,7.216l-0.376,0.45l-0.493,0.355C95.691,39.65,78.854,44.883,60.998,44.883  c-10.949,0-21.55-1.984-31.515-5.899c-0.244-0.055-0.938-0.194-1.811-0.194c-1.71,0-6.914,0-6.914,12.044  c0.096,9.185-0.045,11.226-0.129,12.445c-0.049,0.707-0.062,0.897,0.147,4.233c1.745,27.805,10.166,56.273,24.353,82.328  c16.162,29.68,38.633,54.446,66.79,73.612L109.437,227.168z" fill="#4F4F4F"/></svg>