<svg width="118" height="19" viewBox="0 0 118 19" xmlns="http://www.w3.org/2000/svg" xmlns:xlink="http://www.w3.org/1999/xlink"><title>Group 5</title><defs><path id="a" d="M107.952 14.6l-6.15 4.4 2.269-7.231L98 7.257l7.554-.068L107.952 0l2.4 7.19 7.553.067-6.071 4.512 2.27 7.231z"/></defs><g fill="none" fill-rule="evenodd"><path fill="#FBC73C" d="M9.952 14.6L3.802 19l2.269-7.231L0 7.257l7.554-.068L9.952 0l2.4 7.19 7.553.067-6.071 4.512L16.104 19zM33.952 14.6l-6.15 4.4 2.269-7.231L24 7.257l7.554-.068L33.952 0l2.4 7.19 7.553.067-6.071 4.512L40.104 19zM57.952 14.6l-6.15 4.4 2.269-7.231L48 7.257l7.554-.068L57.952 0l2.4 7.19 7.553.067-6.071 4.512L64.104 19zM82.952 14.6l-6.15 4.4 2.269-7.231L73 7.257l7.554-.068L82.952 0l2.4 7.19 7.553.067-6.071 4.512L89.104 19z"/><mask id="b" fill="#fff"><use xlink:href="#a"/></mask><use fill="#FBC73C" xlink:href="#a"/><path fill="#E4E6F2" mask="url(#b)" d="M108-5h11v29h-11z"/></g></svg>