<?xml version="1.0" ?><!DOCTYPE svg  PUBLIC '-//W3C//DTD SVG 1.1//EN'  'http://www.w3.org/Graphics/SVG/1.1/DTD/svg11.dtd'><svg enable-background="new 0 0 252 250.826" height="250.826" id="Layer_1" overflow="visible" version="1.1" viewBox="0 0 252 250.826" width="252" xml:space="preserve" xmlns="http://www.w3.org/2000/svg" xmlns:xlink="http://www.w3.org/1999/xlink"><path d="M30.888,234.368l63.225-62.813l25.37-0.218l52.173-52.488c7.167-15.271-54.235-45.781-63.675-40.141  l-50.456,83.043L30.888,234.368z" fill="#FFFFFF"/><path d="M174.012,107.972c-10.072-15.854-48.852-34.451-62.682-34.451c-2.316,0-4.167,0.433-5.658,1.323  c-0.629,0.376-1.157,0.9-1.538,1.527l-50.457,83.042c-0.152,0.25-0.278,0.514-0.379,0.787l-26.636,72.617  c-0.727,1.979,0.02,4.199,1.796,5.338c0.746,0.479,1.589,0.712,2.427,0.712c1.157,0,2.305-0.445,3.173-1.308l61.925-61.521  l23.537-0.203c1.185-0.011,2.317-0.487,3.152-1.327l52.174-52.488c0.363-0.367,0.662-0.793,0.881-1.261  C176.971,118.115,177.682,113.748,174.012,107.972z M167.719,116.426l-50.125,50.428l-12.523,0.107l10.259-10.259  c1.758-1.757,1.758-4.606,0-6.363c-1.756-1.758-4.607-1.758-6.363,0l-18.024,18.022c-0.001,0-0.002,0-0.003,0.002l-48.85,48.531  l19.508-53.184l49.326-81.182c0.119-0.006,0.255-0.01,0.407-0.01c11.251,0,46.823,17.276,55.084,30.277  C166.992,113.706,167.846,115.272,167.719,116.426z" fill="#4F4F4F"/><path d="M152.129,7.738l-49.195,72.909c0,0-10.084,15.92,24.186,37.118c30.196,18.679,43.131,5.803,43.131,5.803  l49.726-67.903" fill="#828282"/><path d="M156.35,132.371c-7.733,0.001-18.197-2.489-31.597-10.778c-15.649-9.68-24.775-19.768-27.125-29.982  c-1.803-7.839,1.161-12.828,1.505-13.371l0.071-0.109l49.194-72.909l7.461,5.034l-49.102,72.771  c-2.376,4.415-0.657,16.447,22.729,30.913c24.589,15.209,35.703,7.93,37.429,6.568l49.426-67.493l7.271,5.305l-49.936,68.189  l-0.251,0.252C173.052,127.131,167.573,132.371,156.35,132.371z" fill="#4F4F4F"/><line fill="none" stroke="#4F4F4F" stroke-linecap="round" stroke-width="8" x1="32.458" x2="126.5" y1="234.96" y2="234.96"/><line fill="none" opacity="0.47" stroke="#4F4F4F" stroke-linecap="round" stroke-width="8" x1="152.5" x2="191.5" y1="234.96" y2="234.96"/></svg>