<?xml version="1.0" encoding="UTF-8" standalone="no"?>
<svg
   xmlns:dc="http://purl.org/dc/elements/1.1/"
   xmlns:cc="http://creativecommons.org/ns#"
   xmlns:rdf="http://www.w3.org/1999/02/22-rdf-syntax-ns#"
   xmlns:svg="http://www.w3.org/2000/svg"
   xmlns="http://www.w3.org/2000/svg"
   xmlns:sodipodi="http://sodipodi.sourceforge.net/DTD/sodipodi-0.dtd"
   xmlns:inkscape="http://www.inkscape.org/namespaces/inkscape"
   style="enable-background:new 0 0 5984.956 5984.956;"
   version="1.1"
   viewBox="0 0 5984.956 5984.956"
   xml:space="preserve"
   id="svg108"
   sodipodi:docname="writer.svg"
   inkscape:version="0.92.3 (2405546, 2018-03-11)"><metadata
     id="metadata114"><rdf:RDF><cc:Work
         rdf:about=""><dc:format>image/svg+xml</dc:format><dc:type
           rdf:resource="http://purl.org/dc/dcmitype/StillImage" /><dc:title></dc:title></cc:Work></rdf:RDF></metadata><defs
     id="defs112" /><sodipodi:namedview
     pagecolor="#ffffff"
     bordercolor="#666666"
     borderopacity="1"
     objecttolerance="10"
     gridtolerance="10"
     guidetolerance="10"
     inkscape:pageopacity="0"
     inkscape:pageshadow="2"
     inkscape:window-width="716"
     inkscape:window-height="480"
     id="namedview110"
     showgrid="false"
     inkscape:zoom="0.039432203"
     inkscape:cx="2992.478"
     inkscape:cy="2992.478"
     inkscape:window-x="0"
     inkscape:window-y="0"
     inkscape:window-maximized="0"
     inkscape:current-layer="svg108" /><g
     id="_x34_-Writer"
     transform="matrix(-1,0,0,1,5984.9561,0)"><g
       id="g104"><g
         id="g4"><circle
           cx="2992.478"
           cy="2992.478"
           r="2992.478"
           style="fill:#ffd400"
           id="circle2" /></g><g
         id="g8"><path
           d="m 3913.349,2709.173 c -20.072,-60.246 -80.455,-70.826 -122.249,-42.319 -14.918,-0.283 -30.181,3.634 -44.49,12.927 -55.216,35.86 -94.336,84.029 -137.254,133.144 -40.904,46.812 -82.267,93.302 -123.752,139.602 -85.128,95.013 -174.717,185.501 -266.884,273.652 -90.129,86.2 -183.122,169.2 -279.872,247.92 -84.199,68.507 -199.427,165.203 -198.602,284.96 -0.993,1.692 -1.954,3.419 -2.754,5.307 -23.793,56.168 -18.263,109.41 -15.113,169.032 3.09,58.49 8.691,116.765 10.712,175.338 3.96,114.75 -0.393,229.426 -9.571,343.82 -18.26,227.553 -67.981,451.408 -144.013,666.642 -19.576,55.413 17.556,118.346 69.237,140.251 22.565,19.293 52.334,31.167 84.417,34.555 336.959,35.58 673.921,71.141 1010.893,106.616 72.671,7.65 128.632,-66.442 131.306,-131.306 13.743,-333.249 22.212,-666.672 31.942,-1000.06 9.63,-329.969 21.236,-660.336 22.574,-990.442 0.377,-92.956 0.741,-185.909 1.302,-278.862 0.582,-95.902 12.874,-198.634 -17.829,-290.777 z"
           style="fill:#c6a875"
           id="path6"
           inkscape:connector-curvature="0" /></g><g
         id="g12"><path
           d="m 3931.177,2999.949 c 0.348,-57.01 4.769,-116.424 1.901,-174.602 -25.291,-62.11 -95.353,-72.701 -144.222,-42.332 -17.791,-0.308 -35.996,3.949 -53.062,14.046 -65.853,38.966 -112.51,91.307 -163.697,144.677 -48.784,50.866 -98.118,101.384 -147.593,151.694 -101.531,103.243 -208.38,201.568 -318.301,297.355 -107.493,93.666 -218.402,183.855 -333.792,269.393 -3.519,2.607 -7.152,5.322 -10.753,8.004 -13.524,28.588 -21.632,58.901 -21.413,90.874 -0.993,1.692 -1.955,3.42 -2.754,5.308 -23.792,56.167 -18.265,109.409 -15.114,169.032 2.046,38.714 5.131,77.339 7.611,116.014 156.451,93.177 313.738,185.115 476.356,269.237 163.605,84.633 335.253,154.063 501.196,234.535 62.865,30.484 125.744,60.969 188.956,90.844 3.636,-124.923 7.16,-249.85 10.805,-374.773 9.629,-329.969 21.236,-660.336 22.574,-990.441 0.378,-92.958 0.743,-185.912 1.302,-278.865 z"
           style="fill:#bc9661"
           id="path10"
           inkscape:connector-curvature="0" /></g><g
         id="g16"><path
           d="m 4292.162,2355.21 c -27.491,-119.859 -140.029,-203.81 -257.501,-223.051 -79.552,-13.032 -157.547,-0.937 -231.976,24.591 12.151,-194.359 29.179,-388.348 45.198,-582.466 3.033,-36.764 -29.643,-78.08 -65.347,-85.832 -338.395,-73.469 -681.767,-119.991 -1028.05,-131.53 -171.934,-5.729 -344.156,-3.294 -515.853,7.421 -169.202,10.562 -354.191,19.069 -513.578,77.679 -50.277,18.491 -62.271,74.191 -39.328,109.905 -81.742,97.755 -131.433,225.358 -177.277,341.316 -57.053,144.31 -101.674,292.579 -134.715,444.192 -65.729,301.601 -114.568,642.839 6.061,937.157 19.875,48.49 43.296,94.497 69.829,138.057 116.914,243.028 322.927,419.234 572.138,523.186 287.494,119.92 606.259,124.901 910.875,84.008 147.205,-19.762 290.135,-50.177 425.454,-113.31 131.56,-61.381 242.466,-161.571 322.13,-282.491 167.763,-254.649 181.532,-567.616 172.897,-865.066 97.802,-0.46 196.49,-13.972 279.858,-66.378 112.629,-70.8 190.139,-202.418 159.185,-337.388 z"
           style="fill:#c6a875"
           id="path14"
           inkscape:connector-curvature="0" /></g><g
         id="g20"><path
           d="m 1973.343,2464.101 c -14.02,-16.553 -40.557,-21.542 -60.611,-16.02 -22.889,6.303 -34.979,22.691 -43.509,43.51 -22.003,53.7 9.197,180.699 87.721,159.119 78.492,-21.569 55.466,-140.481 16.399,-186.609 z"
           style="fill:#5a4a42"
           id="path18"
           inkscape:connector-curvature="0" /></g><g
         id="g24"><path
           d="m 2971.116,2531.759 c 14.02,-16.553 40.557,-21.542 60.611,-16.02 22.889,6.303 34.979,22.691 43.509,43.51 22.003,53.7 -9.197,180.699 -87.721,159.119 -78.492,-21.57 -55.466,-140.482 -16.399,-186.609 z"
           style="fill:#5a4a42"
           id="path22"
           inkscape:connector-curvature="0" /></g><g
         id="g28"><path
           d="m 2638.416,3320.323 c -2.858,-10.699 -13.98,-16.185 -24.383,-13.844 -76.909,17.32 -122.453,87.054 -208.589,80.192 -84.556,-6.737 -124.838,-79.623 -195.854,-112.489 -13.114,-6.069 -25.645,-0.939 -30.781,12.523 -45.738,119.882 123.788,208.527 219.699,213.676 91.518,4.91 272.065,-59.673 239.908,-180.058 z"
           style="fill:#5a4a42"
           id="path26"
           inkscape:connector-curvature="0" /></g><g
         id="g32"><path
           d="m 2510.667,2978.646 c -34.355,-34.942 -79.471,-25.183 -122.261,-40.011 -56.906,-19.72 -29.487,-69.477 -14.112,-112.091 l 55.899,-154.947 c 17.472,-48.426 41.278,-100.094 27.58,-152.125 -5.262,-19.989 -31.059,-31.877 -49.084,-19.97 -59.023,38.992 -78.014,122.655 -103.243,185.027 -27.586,68.202 -76.661,149.378 -74.303,224.589 2.001,63.91 48.579,114.573 105.797,137.398 57.376,22.889 141.101,23.583 178.155,-33.555 6.836,-10.542 4.089,-25.653 -4.428,-34.315 z"
           style="fill:#5a4a42"
           id="path30"
           inkscape:connector-curvature="0" /></g><g
         id="g36"><path
           d="m 1998.297,2144.189 c -69.797,-37.88 -157.483,-34.333 -234.07,-24.409 -54.972,7.122 -190.168,27.59 -188.165,106.389 1.967,77.394 120.285,44.551 163.35,35.428 81.666,-17.299 166.598,-9.179 247.164,-27.729 40.82,-9.397 48.192,-69.883 11.721,-89.679 z"
           style="fill:#5a4a42"
           id="path34"
           inkscape:connector-curvature="0" /></g><g
         id="g40"><path
           d="m 3355.5,2286.999 c -16.657,-61.999 -95.009,-95.035 -150.594,-113.077 -60.593,-19.67 -144.583,-44.136 -206.868,-21.704 -35.339,12.726 -51.852,68.526 -11.497,87.965 54.743,26.367 120.715,27.068 178.616,46.849 51.805,17.7 110.853,52.921 166.608,41.764 18.09,-3.62 28.23,-25.065 23.735,-41.797 z"
           style="fill:#5a4a42"
           id="path38"
           inkscape:connector-curvature="0" /></g><g
         id="g44"><path
           d="m 3431.008,3046.817 c -6.055,-144.845 -178.38,-172.47 -291.159,-159.459 -44.506,5.135 -105.03,18.344 -158.324,42.576 -9.961,3.601 -19.873,7.379 -29.688,11.489 -56.629,23.72 -127.237,59.302 -131.04,129.34 -3.959,72.912 51.689,110.472 120.959,129.425 65.977,31.811 158.438,29.142 223.169,16.714 107.735,-5.64 271.85,-32.149 266.083,-170.085 z"
           style="fill:#c19259"
           id="path42"
           inkscape:connector-curvature="0" /></g><g
         id="g48"><path
           d="m 2008.547,2885.272 c -68.743,-44.608 -134.832,-85.676 -212.661,-113.117 -46.42,-16.369 -104.333,-33.784 -152.535,-19.527 -45.701,-1.18 -89.371,9.231 -119.138,50.181 -45.586,62.714 -10.151,157.64 74.288,153.583 3.341,-0.16 6.814,-0.663 10.306,-1.324 60.598,59.453 166.327,95.639 232.236,75.763 5.592,-1.687 10.965,-3.87 16.226,-6.265 45.274,2.803 90.949,-0.578 134.445,-10.505 62.08,-14.171 65.121,-97.454 16.833,-128.789 z"
           style="fill:#c19259"
           id="path46"
           inkscape:connector-curvature="0" /></g><g
         id="g52"><path
           d="m 4056.239,1921.554 c 0.029,0.046 0.057,0.091 0.088,0.136 0.071,-0.212 0.151,-0.414 0.22,-0.629 0,-0 0,-0 0,-0 v -0 c 0.063,-0.193 0.125,-0.38 0.186,-0.575 -0.086,0.122 -0.194,0.273 -0.274,0.392 -0.622,-1.265 -1.627,-3.191 -3.102,-5.933 -4.809,-6.359 0.208,2.514 2.76,6.435 -0.109,0.16 -0.183,0.277 -0.285,0.433 0.074,0.015 0.148,0.022 0.223,0.037 0.058,-0.093 0.121,-0.196 0.181,-0.288 z"
           style="fill:#37474f"
           id="path50"
           inkscape:connector-curvature="0" /></g><g
         id="g56"><path
           d="m 4813.105,2562.266 c -15.003,-91.808 -47.705,-208.482 -109.025,-292.292 11.932,-27.412 21.712,-54.527 29.329,-79.294 36.721,-119.424 37.902,-255.959 -3.987,-374.21 -42.54,-120.083 -121.716,-222.284 -226.387,-294.751 -51.215,-35.458 -109.73,-62.47 -169.379,-80.243 -7.714,-2.299 -15.876,-4.632 -24.303,-6.899 C 4316.73,1217.216 4211.979,993.252 4030.966,872.12 3865.62,761.471 3661.772,755.489 3486.583,825.408 3403.701,679.388 3253.469,566.934 3087.298,532.547 2819.981,477.228 2569.498,599.061 2367.115,766.464 2216.917,665.161 2042.5,599.541 1858.359,609.832 c -235.397,13.156 -453.345,128.456 -589.143,322.24 -126.404,180.383 -142.132,422.757 -58.589,623.645 88.213,212.12 272.029,354.7 501.817,376.354 132.723,12.506 274.295,-25.376 388.342,-101.151 5.551,5.195 11.25,10.31 17.155,15.312 100.396,85.037 222.532,132.507 353.615,141.448 184.21,12.565 355.002,-69.392 499.875,-181.101 100.201,101.262 240.702,162.754 385.004,148.028 57.708,-5.889 114.788,-23.558 167.564,-50.441 1.096,22.672 5.964,50.516 13.673,80.444 13.108,50.887 39.92,94.242 75.307,127.738 -52.345,159.114 -65.159,332.428 -98.384,494.998 -10.733,52.521 22.4,91.913 74.015,97.16 45.259,4.602 90.507,9.418 135.809,13.591 32.779,3.019 75.042,-27.816 80.37,-61.19 25.611,-160.444 34.957,-326.915 83.484,-482.189 1.435,-0.459 2.879,-0.845 4.312,-1.329 68.689,-23.159 123.081,-44.337 142.079,-41.225 117.47,19.241 230.012,103.192 257.5,223.051 30.956,134.971 -46.555,266.587 -159.185,337.388 -53.595,33.69 -113.518,51.306 -175.469,59.714 -59.44,8.067 -102.622,60.32 -102.459,120.306 0.459,166.665 -11.15,335.224 -57.288,493.057 140.204,85.592 323.101,100.464 476.553,17.498 73.139,-39.545 128.515,-100.6 161.328,-172.049 10.973,-2.528 21.592,-5.379 31.649,-8.614 124.585,-40.057 227.649,-133.083 289.141,-247.746 64.996,-121.208 78.643,-258.058 56.671,-392.503 z"
           style="fill:#37474f"
           id="path54"
           inkscape:connector-curvature="0" /></g><g
         style="opacity:0.35"
         id="g60"><path
           d="m 4813.105,2562.266 c -15.003,-91.808 -47.705,-208.482 -109.025,-292.292 11.932,-27.412 21.712,-54.527 29.329,-79.294 36.721,-119.424 37.902,-255.959 -3.987,-374.21 -42.54,-120.083 -121.716,-222.284 -226.387,-294.751 -51.215,-35.458 -109.73,-62.47 -169.379,-80.243 -7.714,-2.299 -15.876,-4.632 -24.303,-6.899 C 4316.73,1217.216 4211.979,993.252 4030.966,872.12 3865.62,761.471 3661.772,755.489 3486.583,825.408 3403.701,679.388 3253.469,566.934 3087.298,532.547 2819.981,477.228 2569.498,599.061 2367.115,766.464 2216.917,665.161 2042.5,599.541 1858.359,609.832 c -235.397,13.156 -453.345,128.456 -589.143,322.24 -32.19,45.936 -57.115,95.919 -75.139,148.186 114.836,-21.924 230.608,-29.972 346.817,-26.861 82.294,-45.74 170.175,-80.439 261.624,-100.619 131.012,-28.911 272.223,-30.172 399.105,17.688 123.263,46.495 222.584,127.056 300.236,229.866 28.045,-6.554 56.064,-13.205 84.092,-19.818 265.428,-62.625 545.316,-132.264 819.275,-92.931 122.493,17.587 242.74,65.172 331.109,154.379 56.164,56.695 93.932,124.108 118.897,196.687 47.454,32.736 90.544,71.606 126.945,117.273 28.339,35.551 52.237,73.26 72.659,112.729 72.602,21.88 141.56,53.161 202.732,104.161 100.142,83.488 125.712,202.572 106.495,326.679 -9.192,59.356 -19.466,120.858 -61.866,166.845 -10.154,11.013 -21.087,20.269 -32.605,28.168 9.923,18.983 17.648,39.244 22.571,60.706 17.899,78.051 -0.614,154.897 -41.073,219.592 30.665,82.545 54.129,165.697 62.197,255.025 17.126,189.621 -58.321,390.645 -160.389,547.476 -12.58,19.328 -25.773,38.353 -39.509,57.033 55.131,-6.893 109.676,-23.455 160.926,-51.164 73.139,-39.545 128.515,-100.6 161.328,-172.049 10.973,-2.528 21.592,-5.379 31.649,-8.614 124.585,-40.057 227.649,-133.083 289.141,-247.746 64.997,-121.202 78.644,-258.052 56.672,-392.497 z"
           style="fill:#37474f"
           id="path58"
           inkscape:connector-curvature="0" /></g><g
         id="g74"><g
           id="g64"><path
             d="m 1768.125,3005.046 c -15.085,0 -30.222,-0.622 -45.422,-1.878 -296.561,-24.56 -517.842,-285.807 -493.288,-582.357 11.895,-143.651 79.023,-274.078 189.01,-367.25 109.987,-93.172 249.706,-137.909 393.335,-126.037 143.657,11.895 274.084,79.023 367.256,189.016 93.167,109.988 137.927,249.683 126.037,393.335 -11.895,143.657 -79.023,274.084 -189.016,367.256 -98.348,83.31 -220.465,127.915 -347.912,127.915 z m -1.176,-927.415 c -199.427,0 -369.345,153.497 -386.086,355.721 -17.648,213.046 141.328,400.726 354.38,418.369 103.229,8.579 203.559,-23.607 282.577,-90.547 79.017,-66.934 127.242,-160.632 135.786,-263.833 8.544,-103.207 -23.607,-203.565 -90.547,-282.582 -66.934,-79.018 -160.632,-127.242 -263.833,-135.786 -10.821,-0.897 -21.609,-1.342 -32.277,-1.342 z"
             style="fill:#263238"
             id="path62"
             inkscape:connector-curvature="0" /></g><g
           id="g68"><path
             d="m 3018.511,3108.573 c -15.085,0 -30.228,-0.622 -45.427,-1.878 -143.657,-11.895 -274.084,-79.023 -367.256,-189.01 -93.167,-109.993 -137.927,-249.683 -126.038,-393.334 24.56,-296.555 285.893,-517.802 582.351,-493.294 143.657,11.895 274.084,79.023 367.256,189.01 93.167,109.993 137.927,249.683 126.037,393.335 -11.895,143.663 -79.023,274.089 -189.016,367.256 -98.349,83.309 -220.466,127.915 -347.907,127.915 z m -1.182,-927.41 c -199.427,0 -369.345,153.497 -386.092,355.727 -8.544,103.201 23.607,203.553 90.541,282.571 66.934,79.023 160.637,127.242 263.838,135.786 103.286,8.579 203.565,-23.613 282.582,-90.541 79.018,-66.934 127.242,-160.637 135.786,-263.838 8.544,-103.207 -23.607,-203.559 -90.541,-282.577 -66.934,-79.023 -160.638,-127.242 -263.838,-135.786 -10.821,-0.897 -21.602,-1.342 -32.276,-1.342 z"
             style="fill:#263238"
             id="path66"
             inkscape:connector-curvature="0" /></g><g
           id="g72"><polygon
             points="2266.487,2586.826 2276.955,2435.23 2560.748,2454.819 2550.28,2606.415 "
             style="fill:#263238"
             id="polygon70" /></g></g><g
         id="g78"><path
           d="m 4823.146,5359.621 c -21.361,-26.771 -43.516,-52.772 -65.077,-78.105 -60.119,-70.63 -126.628,-135.249 -197.706,-194.806 -69.588,-58.311 -142.496,-111.741 -220.3,-158.586 -74.289,-44.729 -157.821,-99.441 -245.457,-111.216 -21.935,-20.443 -53.458,-31.458 -84.825,-23.888 -89.733,21.656 -169.042,88.563 -247,135.644 -80.613,48.681 -160.875,98.176 -245.137,140.39 -152.142,76.213 -318.612,127.679 -490.037,123.96 -150.583,-3.268 -298.75,-47.824 -428.794,-123.205 -67.123,-38.907 -128.286,-85.041 -183.47,-139.612 -57.327,-56.691 80.791,-95.886 23.84,-151.193 -27.437,-26.643 37.044,-83.319 3.896,-77.93 -115.782,-23.43 -536.201,24.032 -638.158,46.619 -150.016,33.232 -296.756,86.447 -434.106,155.303 -149.463,74.929 -287.811,171.993 -410.63,285.748 477.839,442.376 1100.21,730.766 1788.442,786.28 72.097,4.4 144.773,6.654 217.977,6.654 191.382,0 379.16,-15.369 562.263,-44.736 481.379,-87.124 922.602,-289.46 1294.279,-577.321 z"
           style="fill:#cfd8dc"
           id="path76"
           inkscape:connector-curvature="0" /></g><g
         id="g82"><path
           d="m 4823.146,5359.621 c -21.361,-26.771 -43.516,-52.772 -65.077,-78.105 -60.119,-70.63 -126.628,-135.249 -197.706,-194.806 -69.588,-58.311 -142.496,-111.741 -220.3,-158.586 -74.289,-44.729 -157.821,-99.441 -245.457,-111.216 -21.935,-20.443 -53.458,-31.458 -84.825,-23.888 -89.733,21.656 -169.042,88.563 -247,135.644 -80.613,48.681 -160.875,98.176 -245.137,140.39 -152.142,76.213 -318.612,127.679 -490.037,123.96 -150.583,-3.268 -298.75,-47.824 -428.794,-123.205 -67.123,-38.907 -128.286,-85.041 -183.47,-139.612 -57.327,-56.691 80.791,-95.886 23.84,-151.193 -27.437,-26.643 37.044,-83.319 3.896,-77.93 -115.782,-23.43 -536.201,24.032 -638.158,46.619 -150.016,33.232 -296.756,86.447 -434.106,155.303 -149.463,74.929 -287.811,171.993 -410.63,285.748 477.839,442.376 1100.21,730.766 1788.442,786.28 72.097,4.4 144.773,6.654 217.977,6.654 191.382,0 379.16,-15.369 562.263,-44.736 481.379,-87.124 922.602,-289.46 1294.279,-577.321 z"
           style="fill:#cfd8dc"
           id="path80"
           inkscape:connector-curvature="0" /></g><g
         id="g86"><path
           d="m 3047.951,5671.28 c 5,-70.009 8.248,-139.943 5.125,-210.098 -3.228,-72.496 -2.063,-155.097 -29.115,-223.192 -8.076,-20.326 -21.755,-36.162 -38.01,-47.05 -28.978,-2.088 -57.799,-5.674 -86.375,-10.695 -21.92,8.908 -40.465,27.566 -49.309,57.745 -19.797,67.556 -16.156,142.292 -21.021,212.119 -4.88,70.029 -8.759,140.227 -15.188,210.135 -5.796,63.007 -12.246,126.23 -20.693,188.94 -5.808,43.107 -14.426,85.048 -18.667,127.229 63.547,3.415 127.507,5.261 191.904,5.261 13.405,0 26.752,-0.252 40.122,-0.403 6.099,-30.73 10.228,-61.949 15.006,-91.937 11.53,-72.358 20.999,-144.959 26.221,-218.054 z"
           style="fill:#efefef"
           id="path84"
           inkscape:connector-curvature="0" /></g><g
         id="g90"><path
           d="m 2933.524,5538.949 c -98.873,-10.486 -115.331,143.154 -16.294,153.658 98.874,10.486 115.332,-143.154 16.294,-153.658 z"
           style="fill:#90a4ae"
           id="path88"
           inkscape:connector-curvature="0" /></g><g
         id="g94"><path
           d="m 2966.602,5981.676 c 191.382,0 379.16,-15.369 562.263,-44.736 219.504,-39.726 430.617,-103.479 630.635,-188.302 102.068,-97.193 201.202,-197.348 301.575,-296.312 56.561,-55.765 114.368,-110.401 176.362,-160.142 25.023,-20.076 52.086,-38.58 78.9,-57.454 -48.721,-52.638 -100.926,-101.895 -155.974,-148.021 -69.588,-58.311 -142.496,-111.741 -220.3,-158.586 -71.695,-43.166 -152.008,-95.511 -236.302,-109.708 -23.738,26.384 -47.023,53.272 -71.834,77.307 -53.535,51.861 -112.767,97.256 -171.79,142.585 -143.814,110.448 -274.187,237.047 -403.874,363.429 -124.005,120.849 -248.099,242.845 -384.665,349.685 -56.629,44.304 -115.94,85.7 -177.216,123.507 -35.399,-53.053 -77.162,-102.748 -113.392,-149.01 -84.069,-107.342 -172.578,-210.834 -259.535,-315.793 -83.765,-101.104 -164.19,-205.457 -233.04,-317.422 -38.132,-62.011 -72.491,-126.267 -102.579,-192.561 -27.166,-59.853 -50.644,-121.689 -84.437,-177.944 -1.918,-4.319 -3.868,-8.626 -5.788,-12.946 -124.134,11.667 -242.7,27.808 -290.693,38.44 -150.016,33.232 -296.756,86.447 -434.106,155.303 -3.265,1.637 -6.448,3.432 -9.702,5.09 6.07,14.092 12.105,28.22 18.504,42.268 33.45,73.415 65.897,147.372 95.624,222.381 54.146,136.625 80.273,280.454 129.346,418.207 7.914,22.214 16.254,44.119 24.773,65.874 340.457,174.555 718.666,285.896 1119.265,318.208 72.1,4.399 144.776,6.653 217.98,6.653 z"
           style="fill:#3f51b5"
           id="path92"
           inkscape:connector-curvature="0" /></g><g
         id="g98"><path
           d="m 2984.108,5100.998 c -67.754,-53.542 -135.694,-106.73 -195.803,-168.731 -9.984,-10.298 -20.446,-20.627 -31.255,-30.987 -53.633,-51.403 -81.409,-124.102 -76.114,-198.202 2.629,-36.782 8.03,-71.408 17.648,-91.734 40.138,-84.819 -17.185,-67.563 -104.867,-55.682 -73.167,9.915 -140.784,20.702 -200.454,59.394 -10.024,4.948 -28.943,21.525 -37.121,29.697 -50.328,40.525 -84.401,79.314 -96.713,152.897 -27.025,161.512 40.137,343.641 93.593,494.01 48.38,136.088 124.769,347.742 310.734,286.221 15.307,-3.562 29.994,-10.077 42.724,-19.336 61.647,-36.146 107.813,-100.131 146.121,-157.934 23.757,-35.846 44.41,-73.679 62.228,-112.827 16.297,-35.807 41.703,-66.177 69.981,-93.527 25.103,-24.278 33.646,-66.116 -0.702,-93.259 z"
           style="fill:#ffffff"
           id="path96"
           inkscape:connector-curvature="0" /></g><g
         id="g102"><path
           d="m 3953.147,4682.08 c -30.362,-2.311 -59.786,-3.286 -87.909,2.582 -73.486,7.349 -146.225,31.259 -216.169,52.032 -88.351,26.24 -175.414,56.48 -261.248,90.026 -90.689,35.444 -180.207,72.607 -267.792,115.283 -77.018,37.527 -170.822,75.82 -194.826,167.425 -25.501,97.322 35.803,185.239 82.586,265.238 24.385,41.691 48.764,83.383 73.149,125.074 24.358,41.654 47.249,87.396 89.685,113.532 104.033,64.077 191.184,-25.996 265.632,-90.594 69.1,-59.958 136.711,-121.574 201.912,-185.762 151.268,-148.915 288.147,-311.968 413.49,-483.168 55.543,-75.864 -21.368,-165.799 -98.51,-171.668 z"
           style="fill:#eceff1"
           id="path100"
           inkscape:connector-curvature="0" /></g></g></g><g
     id="Layer_1"
     transform="matrix(-1,0,0,1,5984.9561,0)" /></svg>